<svg width="1177" height="247" viewBox="0 0 1177 247" fill="none" xmlns="http://www.w3.org/2000/svg">
<path d="M882.16 227.54C882.16 227.753 882.053 227.88 881.84 227.92L880.84 228.14L876.84 241H875.08L871.46 230.08C871.393 229.92 871.327 229.68 871.26 229.36L871.16 229.72C871.147 229.773 871.133 229.833 871.12 229.9C871.107 229.967 871.093 230.027 871.08 230.08L867.44 241H865.68L861.68 228.12C861.16 228.013 860.827 227.933 860.68 227.88C860.467 227.84 860.36 227.72 860.36 227.52V226.66H865.24V227.52C865.24 227.72 865.133 227.84 864.92 227.88C864.627 227.947 864.387 228 864.2 228.04C864.013 228.08 863.88 228.107 863.8 228.12L866.44 237.08C866.587 237.613 866.68 238.027 866.72 238.32C866.84 237.747 866.94 237.333 867.02 237.08L870.4 227.12C870.44 227.013 870.52 226.907 870.64 226.8C870.773 226.693 870.913 226.64 871.06 226.64H871.62C871.94 226.64 872.16 226.8 872.28 227.12L875.64 237.08C875.787 237.533 875.893 237.933 875.96 238.28L876.06 237.64L876.18 237.08L878.84 228.12C878.76 228.12 878.527 228.073 878.14 227.98L877.72 227.9C877.507 227.86 877.4 227.733 877.4 227.52V226.68H882.16V227.54ZM886.253 230.72C886.84 230.72 887.393 230.82 887.913 231.02C888.447 231.22 888.887 231.507 889.233 231.88C889.633 232.307 889.927 232.78 890.113 233.3C890.327 233.9 890.433 234.54 890.433 235.22C890.433 235.527 890.407 235.713 890.353 235.78C890.287 235.873 890.167 235.92 889.993 235.92H883.273C883.273 236.56 883.353 237.12 883.513 237.6C883.647 238.013 883.873 238.4 884.193 238.76C884.487 239.093 884.82 239.333 885.193 239.48C885.593 239.64 886.02 239.72 886.473 239.72C886.953 239.72 887.34 239.673 887.633 239.58C887.913 239.487 888.193 239.373 888.473 239.24C888.767 239.093 888.967 238.987 889.073 238.92C889.247 238.813 889.38 238.76 889.473 238.76C889.62 238.76 889.733 238.82 889.813 238.94L890.313 239.6C890.127 239.84 889.86 240.067 889.513 240.28C889.113 240.533 888.787 240.7 888.533 240.78C888.133 240.913 887.773 241.007 887.453 241.06C887.053 241.127 886.687 241.16 886.353 241.16C885.66 241.16 885.013 241.04 884.413 240.8C883.84 240.573 883.327 240.22 882.873 239.74C882.447 239.3 882.113 238.733 881.873 238.04C881.633 237.36 881.513 236.587 881.513 235.72C881.513 235.027 881.627 234.373 881.853 233.76C882.08 233.133 882.393 232.6 882.793 232.16C883.207 231.707 883.707 231.353 884.293 231.1C884.88 230.847 885.533 230.72 886.253 230.72ZM886.293 232.02C885.427 232.02 884.753 232.267 884.273 232.76C883.78 233.28 883.473 233.973 883.353 234.84H888.853C888.853 234.427 888.793 234.053 888.673 233.72C888.527 233.307 888.367 233.007 888.193 232.82C887.967 232.58 887.693 232.387 887.373 232.24C887.067 232.107 886.7 232.04 886.273 232.04L886.293 232.02ZM912.254 231.76C912.254 231.96 912.154 232.08 911.954 232.12C911.914 232.12 911.854 232.133 911.774 232.16C911.694 232.173 911.587 232.193 911.454 232.22C911.307 232.247 911.194 232.273 911.114 232.3C911.047 232.313 910.994 232.32 910.954 232.32L908.134 241H906.734C906.547 241 906.427 240.893 906.374 240.68L904.134 233.8C904.094 233.693 904.047 233.533 903.994 233.32C903.981 233.253 903.967 233.187 903.954 233.12C903.941 233.04 903.921 232.96 903.894 232.88C903.881 232.96 903.867 233.04 903.854 233.12C903.841 233.2 903.827 233.28 903.814 233.36L903.694 233.8L901.414 240.66C901.334 240.887 901.201 241 901.014 241H899.654L896.854 232.3C896.787 232.3 896.674 232.28 896.514 232.24C896.341 232.2 896.201 232.167 896.094 232.14C895.987 232.113 895.907 232.1 895.854 232.1C895.641 232.06 895.534 231.933 895.534 231.72V230.88H900.054V231.72C900.054 231.933 899.954 232.06 899.754 232.1C899.594 232.14 899.427 232.173 899.254 232.2L898.654 232.32L900.254 237.76C900.281 237.893 900.307 238.013 900.334 238.12C900.361 238.227 900.381 238.32 900.394 238.4C900.487 238.84 900.534 239.087 900.534 239.14C900.574 238.927 900.707 238.467 900.934 237.76L903.054 231.2C903.134 230.96 903.294 230.84 903.534 230.84H904.314C904.567 230.84 904.734 230.96 904.814 231.2L906.914 237.76L907.274 239.12C907.354 238.64 907.454 238.187 907.574 237.76L909.214 232.32C909.147 232.32 908.761 232.247 908.054 232.1C907.841 232.06 907.734 231.933 907.734 231.72V230.88L912.254 230.9V231.76ZM914.717 228.58C914.61 228.473 914.517 228.34 914.437 228.18C914.37 228.047 914.337 227.887 914.337 227.7C914.337 227.5 914.37 227.333 914.437 227.2C914.53 227.013 914.623 226.873 914.717 226.78C914.823 226.673 914.957 226.58 915.117 226.5C915.25 226.433 915.41 226.4 915.597 226.4C915.783 226.4 915.943 226.433 916.077 226.5C916.237 226.58 916.37 226.673 916.477 226.78C916.57 226.873 916.663 227.013 916.757 227.2C916.837 227.36 916.877 227.527 916.877 227.7C916.877 227.86 916.837 228.02 916.757 228.18C916.677 228.34 916.583 228.473 916.477 228.58C916.37 228.687 916.237 228.78 916.077 228.86C915.943 228.927 915.783 228.96 915.597 228.96C915.41 228.96 915.25 228.927 915.117 228.86C914.957 228.78 914.823 228.687 914.717 228.58ZM917.617 239.76C917.71 239.773 917.783 239.82 917.837 239.9C917.89 239.967 917.917 240.047 917.917 240.14V241H913.257V240.14C913.257 240.047 913.283 239.967 913.337 239.9C913.39 239.82 913.463 239.773 913.557 239.76L914.717 239.54V232.32L913.557 232.1C913.463 232.087 913.39 232.047 913.337 231.98C913.283 231.9 913.257 231.813 913.257 231.72V230.88H916.477V239.54L917.617 239.76ZM923.418 239.76C923.631 239.8 923.738 239.927 923.738 240.14V241H919.058V240.14C919.058 239.927 919.165 239.8 919.378 239.76L920.498 239.54V227.72C919.885 227.6 919.511 227.52 919.378 227.48C919.165 227.44 919.058 227.32 919.058 227.12V226.26H922.298V239.52C922.911 239.64 923.285 239.72 923.418 239.76ZM929.219 239.76C929.432 239.8 929.539 239.927 929.539 240.14V241H924.859V240.14C924.859 239.927 924.965 239.8 925.179 239.76L926.299 239.54V227.72C925.685 227.6 925.312 227.52 925.179 227.48C924.965 227.44 924.859 227.32 924.859 227.12V226.26H928.099V239.52C928.712 239.64 929.085 239.72 929.219 239.76ZM938.896 230.74C939.35 230.74 939.756 230.787 940.116 230.88C940.503 230.987 940.85 231.133 941.156 231.32H943.916V231.98C943.916 232.193 943.776 232.333 943.496 232.4L942.356 232.56C942.57 232.947 942.676 233.427 942.676 234C942.676 234.52 942.583 234.967 942.396 235.34C942.183 235.767 941.923 236.107 941.616 236.36C941.243 236.667 940.843 236.893 940.416 237.04C939.99 237.187 939.483 237.26 938.896 237.26C938.416 237.26 937.97 237.2 937.556 237.08C937.37 237.187 937.21 237.333 937.076 237.52C936.97 237.667 936.916 237.813 936.916 237.96C936.916 238.213 937.01 238.393 937.196 238.5C937.423 238.633 937.683 238.72 937.976 238.76C938.403 238.813 938.77 238.84 939.076 238.84C939.343 238.84 939.756 238.867 940.316 238.92C940.423 238.933 940.603 238.953 940.856 238.98C941.123 238.993 941.356 239.02 941.556 239.06C941.983 239.14 942.35 239.26 942.656 239.42C942.95 239.567 943.21 239.8 943.436 240.12C943.623 240.387 943.716 240.76 943.716 241.24C943.716 241.707 943.61 242.133 943.396 242.52C943.196 242.893 942.876 243.253 942.436 243.6C942.05 243.907 941.556 244.16 940.956 244.36C940.396 244.547 939.73 244.64 938.956 244.64C938.156 244.64 937.503 244.567 936.996 244.42C936.436 244.26 935.976 244.06 935.616 243.82C935.256 243.58 934.983 243.293 934.796 242.96C934.61 242.627 934.516 242.293 934.516 241.96C934.516 241.467 934.676 241.04 934.996 240.68C935.316 240.32 935.756 240.04 936.316 239.84C936.036 239.72 935.81 239.54 935.636 239.3C935.463 239.06 935.376 238.76 935.376 238.4C935.376 238.32 935.403 238.173 935.456 237.96C935.496 237.8 935.576 237.64 935.696 237.48C935.803 237.333 935.943 237.187 936.116 237.04C936.17 236.987 936.356 236.867 936.676 236.68C936.17 236.4 935.776 236.027 935.496 235.56C935.216 235.093 935.076 234.553 935.076 233.94C935.076 233.42 935.17 232.973 935.356 232.6C935.556 232.187 935.823 231.847 936.156 231.58C936.49 231.3 936.903 231.08 937.396 230.92C937.836 230.773 938.35 230.7 938.936 230.7L938.896 230.74ZM938.916 236.12C939.263 236.12 939.583 236.067 939.876 235.96C940.13 235.867 940.363 235.727 940.576 235.54C940.763 235.367 940.903 235.147 940.996 234.88C941.09 234.6 941.136 234.327 941.136 234.06C941.136 233.433 940.943 232.94 940.556 232.58C940.183 232.22 939.636 232.04 938.916 232.04C938.21 232.04 937.663 232.22 937.276 232.58C936.903 232.94 936.716 233.433 936.716 234.06C936.716 234.353 936.77 234.627 936.876 234.88C936.996 235.16 937.136 235.373 937.296 235.52C937.51 235.707 937.743 235.847 937.996 235.94C938.263 236.033 938.57 236.08 938.916 236.08V236.12ZM942.076 241.6C942.076 241.347 942.01 241.147 941.876 241C941.743 240.84 941.55 240.72 941.296 240.64C941.043 240.56 940.77 240.5 940.476 240.46C940.05 240.407 939.716 240.373 939.476 240.36L938.416 240.32C938.35 240.32 938.01 240.28 937.396 240.2C937.01 240.387 936.696 240.607 936.456 240.86C936.216 241.127 936.096 241.44 936.096 241.8C936.096 242.027 936.156 242.24 936.276 242.44C936.396 242.627 936.576 242.793 936.816 242.94C937.07 243.087 937.37 243.2 937.716 243.28C938.076 243.36 938.503 243.4 938.996 243.4C939.41 243.4 939.836 243.353 940.276 243.26C940.623 243.193 940.943 243.067 941.236 242.88C941.503 242.72 941.703 242.533 941.836 242.32C941.983 242.093 942.056 241.853 942.056 241.6H942.076ZM946.533 228.58C946.426 228.473 946.333 228.34 946.253 228.18C946.186 228.047 946.153 227.887 946.153 227.7C946.153 227.5 946.186 227.333 946.253 227.2C946.346 227.013 946.44 226.873 946.533 226.78C946.64 226.673 946.773 226.58 946.933 226.5C947.066 226.433 947.226 226.4 947.413 226.4C947.6 226.4 947.76 226.433 947.893 226.5C948.053 226.58 948.186 226.673 948.293 226.78C948.386 226.873 948.48 227.013 948.573 227.2C948.653 227.36 948.693 227.527 948.693 227.7C948.693 227.86 948.653 228.02 948.573 228.18C948.493 228.34 948.4 228.473 948.293 228.58C948.186 228.687 948.053 228.78 947.893 228.86C947.76 228.927 947.6 228.96 947.413 228.96C947.226 228.96 947.066 228.927 946.933 228.86C946.773 228.78 946.64 228.687 946.533 228.58ZM949.433 239.76C949.526 239.773 949.6 239.82 949.653 239.9C949.706 239.967 949.733 240.047 949.733 240.14V241H945.073V240.14C945.073 240.047 945.1 239.967 945.153 239.9C945.206 239.82 945.28 239.773 945.373 239.76L946.533 239.54V232.32L945.373 232.1C945.28 232.087 945.206 232.047 945.153 231.98C945.1 231.9 945.073 231.813 945.073 231.72V230.88H948.293V239.54L949.433 239.76ZM961.794 231.76C961.794 231.96 961.694 232.08 961.494 232.12C961.454 232.12 961.394 232.133 961.314 232.16C961.248 232.173 961.161 232.187 961.054 232.2L960.514 232.32L956.974 241.02H955.354L951.814 232.32C951.681 232.28 951.501 232.24 951.274 232.2L950.834 232.12C950.634 232.08 950.534 231.953 950.534 231.74V230.88H955.074V231.74C955.074 231.953 954.974 232.08 954.774 232.12C954.681 232.147 954.541 232.173 954.354 232.2C954.168 232.227 953.941 232.267 953.674 232.32L955.814 237.76C955.921 238.04 956.041 238.52 956.174 239.2C956.361 238.453 956.494 237.973 956.574 237.76L958.734 232.32L957.594 232.1C957.394 232.06 957.294 231.933 957.294 231.72V230.88H961.794V231.76ZM966.761 230.72C967.348 230.72 967.901 230.82 968.421 231.02C968.954 231.22 969.394 231.507 969.741 231.88C970.141 232.307 970.434 232.78 970.621 233.3C970.834 233.9 970.941 234.54 970.941 235.22C970.941 235.527 970.914 235.713 970.861 235.78C970.794 235.873 970.674 235.92 970.501 235.92H963.781C963.781 236.56 963.861 237.12 964.021 237.6C964.154 238.013 964.381 238.4 964.701 238.76C964.994 239.093 965.328 239.333 965.701 239.48C966.101 239.64 966.528 239.72 966.981 239.72C967.461 239.72 967.848 239.673 968.141 239.58C968.421 239.487 968.701 239.373 968.981 239.24C969.274 239.093 969.474 238.987 969.581 238.92C969.754 238.813 969.888 238.76 969.981 238.76C970.128 238.76 970.241 238.82 970.321 238.94L970.821 239.6C970.634 239.84 970.368 240.067 970.021 240.28C969.621 240.533 969.294 240.7 969.041 240.78C968.641 240.913 968.281 241.007 967.961 241.06C967.561 241.127 967.194 241.16 966.861 241.16C966.168 241.16 965.521 241.04 964.921 240.8C964.348 240.573 963.834 240.22 963.381 239.74C962.954 239.3 962.621 238.733 962.381 238.04C962.141 237.36 962.021 236.587 962.021 235.72C962.021 235.027 962.134 234.373 962.361 233.76C962.588 233.133 962.901 232.6 963.301 232.16C963.714 231.707 964.214 231.353 964.801 231.1C965.388 230.847 966.041 230.72 966.761 230.72ZM966.801 232.02C965.934 232.02 965.261 232.267 964.781 232.76C964.288 233.28 963.981 233.973 963.861 234.84H969.361C969.361 234.427 969.301 234.053 969.181 233.72C969.034 233.307 968.874 233.007 968.701 232.82C968.474 232.58 968.201 232.387 967.881 232.24C967.574 232.107 967.208 232.04 966.781 232.04L966.801 232.02ZM987.282 231.72C987.282 231.92 987.182 232.04 986.982 232.08C986.928 232.08 986.848 232.093 986.742 232.12C986.648 232.147 986.548 232.173 986.442 232.2L985.942 232.3L980.922 243.98C980.868 244.113 980.782 244.22 980.662 244.3C980.555 244.38 980.428 244.42 980.282 244.42H978.962L980.802 240.4L977.242 232.28C976.842 232.213 976.542 232.147 976.342 232.08C976.142 232.04 976.042 231.92 976.042 231.72V230.86H980.582V231.72C980.582 231.92 980.482 232.04 980.282 232.08C980.148 232.12 979.775 232.2 979.162 232.32L981.422 237.6C981.488 237.747 981.542 237.92 981.582 238.12C981.635 238.32 981.668 238.453 981.682 238.52C981.775 238.2 981.882 237.893 982.002 237.6L984.182 232.32C984.182 232.32 983.815 232.247 983.082 232.1C982.895 232.06 982.802 231.933 982.802 231.72V230.88H986.562L987.282 230.86V231.72ZM992.702 230.72C993.435 230.72 994.102 230.84 994.702 231.08C995.289 231.32 995.802 231.667 996.242 232.12C996.655 232.547 996.975 233.093 997.202 233.76C997.429 234.413 997.542 235.133 997.542 235.92C997.542 236.707 997.429 237.427 997.202 238.08C996.975 238.747 996.655 239.293 996.242 239.72C995.802 240.173 995.289 240.52 994.702 240.76C994.102 241 993.435 241.12 992.702 241.12C991.969 241.12 991.302 241 990.702 240.76C990.115 240.52 989.602 240.173 989.162 239.72C988.762 239.307 988.435 238.76 988.182 238.08C987.969 237.507 987.862 236.787 987.862 235.92C987.862 235.053 987.969 234.333 988.182 233.76C988.435 233.08 988.762 232.533 989.162 232.12C989.602 231.667 990.115 231.32 990.702 231.08C991.302 230.84 991.969 230.72 992.702 230.72ZM992.702 239.76C993.729 239.76 994.475 239.427 994.942 238.76C995.435 238.067 995.682 237.127 995.682 235.94C995.682 234.753 995.435 233.813 994.942 233.12C994.475 232.453 993.729 232.12 992.702 232.12C992.182 232.12 991.742 232.2 991.382 232.36C991.035 232.52 990.729 232.773 990.462 233.12C990.209 233.467 990.022 233.867 989.902 234.32C989.769 234.853 989.702 235.4 989.702 235.96C989.702 236.493 989.769 237.027 989.902 237.56C990.022 238.013 990.209 238.413 990.462 238.76C990.689 239.067 990.995 239.307 991.382 239.48C991.809 239.667 992.249 239.76 992.702 239.76ZM1003.63 239.76C1004.63 239.76 1005.54 239.293 1006.37 238.36V232.36C1006.25 232.32 1005.87 232.24 1005.23 232.12C1005.03 232.08 1004.93 231.953 1004.93 231.74V230.88H1008.15V239.56C1008.79 239.68 1009.17 239.76 1009.29 239.8C1009.49 239.84 1009.59 239.96 1009.59 240.16V241.02H1007.09C1006.85 241.02 1006.69 240.893 1006.61 240.64L1006.47 239.56C1005.51 240.64 1004.39 241.18 1003.11 241.18C1002.03 241.18 1001.19 240.827 1000.59 240.12C1000 239.413 999.708 238.487 999.708 237.34V232.34C999.095 232.22 998.722 232.14 998.588 232.1C998.375 232.06 998.268 231.933 998.268 231.72V230.88H1001.51V237.32C1001.51 238.12 1001.68 238.72 1002.03 239.12C1002.39 239.533 1002.92 239.74 1003.63 239.74V239.76ZM1018.23 232.94C1018.98 231.433 1020.01 230.68 1021.31 230.68C1021.83 230.68 1022.29 230.8 1022.69 231.04L1022.47 232.38C1022.43 232.553 1022.35 232.64 1022.21 232.64C1022.12 232.64 1021.96 232.607 1021.73 232.54C1021.51 232.473 1021.23 232.44 1020.91 232.44C1019.74 232.44 1018.87 233.147 1018.31 234.56V239.56L1019.45 239.78C1019.65 239.82 1019.75 239.947 1019.75 240.16V241H1015.09V240.16C1015.09 239.947 1015.19 239.82 1015.39 239.78L1016.53 239.56V232.34C1015.89 232.22 1015.51 232.14 1015.39 232.1C1015.19 232.06 1015.09 231.933 1015.09 231.72V230.88H1017.55C1017.74 230.88 1017.87 230.913 1017.93 230.98C1018 231.047 1018.05 231.173 1018.09 231.36L1018.21 232.94H1018.23ZM1027.84 230.72C1028.42 230.72 1028.98 230.82 1029.5 231.02C1030.03 231.22 1030.47 231.507 1030.82 231.88C1031.22 232.307 1031.51 232.78 1031.7 233.3C1031.91 233.9 1032.02 234.54 1032.02 235.22C1032.02 235.527 1031.99 235.713 1031.94 235.78C1031.87 235.873 1031.75 235.92 1031.58 235.92H1024.86C1024.86 236.56 1024.94 237.12 1025.1 237.6C1025.23 238.013 1025.46 238.4 1025.78 238.76C1026.07 239.093 1026.4 239.333 1026.78 239.48C1027.18 239.64 1027.6 239.72 1028.06 239.72C1028.54 239.72 1028.92 239.673 1029.22 239.58C1029.5 239.487 1029.78 239.373 1030.06 239.24C1030.35 239.093 1030.55 238.987 1030.66 238.92C1030.83 238.813 1030.96 238.76 1031.06 238.76C1031.2 238.76 1031.32 238.82 1031.4 238.94L1031.9 239.6C1031.71 239.84 1031.44 240.067 1031.1 240.28C1030.7 240.533 1030.37 240.7 1030.12 240.78C1029.72 240.913 1029.36 241.007 1029.04 241.06C1028.64 241.127 1028.27 241.16 1027.94 241.16C1027.24 241.16 1026.6 241.04 1026 240.8C1025.42 240.573 1024.91 240.22 1024.46 239.74C1024.03 239.3 1023.7 238.733 1023.46 238.04C1023.22 237.36 1023.1 236.587 1023.1 235.72C1023.1 235.027 1023.21 234.373 1023.44 233.76C1023.66 233.133 1023.98 232.6 1024.38 232.16C1024.79 231.707 1025.29 231.353 1025.88 231.1C1026.46 230.847 1027.12 230.72 1027.84 230.72ZM1027.88 232.02C1027.01 232.02 1026.34 232.267 1025.86 232.76C1025.36 233.28 1025.06 233.973 1024.94 234.84H1030.44C1030.44 234.427 1030.38 234.053 1030.26 233.72C1030.11 233.307 1029.95 233.007 1029.78 232.82C1029.55 232.58 1029.28 232.387 1028.96 232.24C1028.65 232.107 1028.28 232.04 1027.86 232.04L1027.88 232.02ZM1041.71 239.58C1040.87 240.62 1039.61 241.14 1037.95 241.14C1036.67 241.14 1035.61 240.68 1034.79 239.76C1033.92 238.787 1033.49 237.507 1033.49 235.92C1033.49 234.373 1033.89 233.127 1034.71 232.18C1035.56 231.207 1036.75 230.72 1038.27 230.72C1039.03 230.72 1040.03 230.96 1041.27 231.44V234.08H1040.47C1040.28 234.08 1040.17 233.987 1040.13 233.8C1040.11 233.76 1040.09 233.507 1040.05 233.04L1039.99 232.38C1039.84 232.327 1039.69 232.287 1039.55 232.26C1039.41 232.233 1039.32 232.213 1039.27 232.2C1038.91 232.147 1038.53 232.12 1038.15 232.12C1037.8 232.12 1037.43 232.207 1037.05 232.38C1036.69 232.54 1036.37 232.787 1036.11 233.12C1035.6 233.787 1035.35 234.72 1035.35 235.92C1035.35 237.12 1035.61 238.067 1036.15 238.76C1036.67 239.427 1037.38 239.76 1038.29 239.76C1039.13 239.76 1039.87 239.48 1040.51 238.92C1040.61 238.813 1040.75 238.76 1040.91 238.76C1041.05 238.76 1041.16 238.813 1041.23 238.92L1041.71 239.58ZM1047.92 230.72C1048.65 230.72 1049.32 230.84 1049.92 231.08C1050.5 231.32 1051.02 231.667 1051.46 232.12C1051.87 232.547 1052.19 233.093 1052.42 233.76C1052.64 234.413 1052.76 235.133 1052.76 235.92C1052.76 236.707 1052.64 237.427 1052.42 238.08C1052.19 238.747 1051.87 239.293 1051.46 239.72C1051.02 240.173 1050.5 240.52 1049.92 240.76C1049.32 241 1048.65 241.12 1047.92 241.12C1047.18 241.12 1046.52 241 1045.92 240.76C1045.33 240.52 1044.82 240.173 1044.38 239.72C1043.98 239.307 1043.65 238.76 1043.4 238.08C1043.18 237.507 1043.08 236.787 1043.08 235.92C1043.08 235.053 1043.18 234.333 1043.4 233.76C1043.65 233.08 1043.98 232.533 1044.38 232.12C1044.82 231.667 1045.33 231.32 1045.92 231.08C1046.52 230.84 1047.18 230.72 1047.92 230.72ZM1047.92 239.76C1048.94 239.76 1049.69 239.427 1050.16 238.76C1050.65 238.067 1050.9 237.127 1050.9 235.94C1050.9 234.753 1050.65 233.813 1050.16 233.12C1049.69 232.453 1048.94 232.12 1047.92 232.12C1047.4 232.12 1046.96 232.2 1046.6 232.36C1046.25 232.52 1045.94 232.773 1045.68 233.12C1045.42 233.467 1045.24 233.867 1045.12 234.32C1044.98 234.853 1044.92 235.4 1044.92 235.96C1044.92 236.493 1044.98 237.027 1045.12 237.56C1045.24 238.013 1045.42 238.413 1045.68 238.76C1045.9 239.067 1046.21 239.307 1046.6 239.48C1047.02 239.667 1047.46 239.76 1047.92 239.76ZM1056.98 232.3C1057.84 231.247 1058.79 230.72 1059.84 230.72C1060.54 230.72 1061.1 230.913 1061.52 231.3C1061.94 231.673 1062.24 232.187 1062.44 232.84C1062.74 232.12 1063.18 231.587 1063.76 231.24C1064.38 230.893 1064.96 230.72 1065.52 230.72C1066.11 230.72 1066.63 230.807 1067.08 230.98C1067.51 231.14 1067.87 231.387 1068.16 231.72C1068.75 232.387 1069.04 233.333 1069.04 234.56V239.56C1069.71 239.68 1070.1 239.76 1070.2 239.8C1070.4 239.84 1070.5 239.96 1070.5 240.16V241.04H1067.28V234.58C1067.28 233.767 1067.11 233.167 1066.76 232.78C1066.39 232.367 1065.88 232.16 1065.24 232.16C1064.63 232.16 1064.12 232.36 1063.72 232.76C1063.28 233.2 1063.06 233.8 1063.06 234.56V239.56C1063.12 239.573 1063.23 239.6 1063.4 239.64C1063.58 239.68 1063.84 239.733 1064.2 239.8C1064.4 239.84 1064.5 239.96 1064.5 240.16V241.02H1061.28V234.56C1061.28 232.96 1060.64 232.16 1059.36 232.16C1058.54 232.16 1057.78 232.6 1057.1 233.48V239.56L1057.64 239.66L1058.24 239.78C1058.44 239.82 1058.54 239.947 1058.54 240.16V241H1053.88V240.16C1053.88 239.947 1053.98 239.82 1054.16 239.78L1055.32 239.56V232.34C1054.66 232.22 1054.27 232.14 1054.16 232.1C1053.98 232.06 1053.88 231.933 1053.88 231.72V230.88H1056.36C1056.6 230.88 1056.76 231 1056.84 231.24L1056.98 232.28V232.3ZM1074.78 232.3C1075.63 231.247 1076.58 230.72 1077.64 230.72C1078.33 230.72 1078.89 230.913 1079.32 231.3C1079.73 231.673 1080.04 232.187 1080.24 232.84C1080.53 232.12 1080.97 231.587 1081.56 231.24C1082.17 230.893 1082.76 230.72 1083.32 230.72C1083.9 230.72 1084.42 230.807 1084.88 230.98C1085.3 231.14 1085.66 231.387 1085.96 231.72C1086.54 232.387 1086.84 233.333 1086.84 234.56V239.56C1087.5 239.68 1087.89 239.76 1088 239.8C1088.2 239.84 1088.3 239.96 1088.3 240.16V241.04H1085.08V234.58C1085.08 233.767 1084.9 233.167 1084.56 232.78C1084.18 232.367 1083.68 232.16 1083.04 232.16C1082.42 232.16 1081.92 232.36 1081.52 232.76C1081.08 233.2 1080.86 233.8 1080.86 234.56V239.56C1080.91 239.573 1081.02 239.6 1081.2 239.64C1081.37 239.68 1081.64 239.733 1082 239.8C1082.2 239.84 1082.3 239.96 1082.3 240.16V241.02H1079.08V234.56C1079.08 232.96 1078.44 232.16 1077.16 232.16C1076.33 232.16 1075.58 232.6 1074.9 233.48V239.56L1075.44 239.66L1076.04 239.78C1076.24 239.82 1076.34 239.947 1076.34 240.16V241H1071.68V240.16C1071.68 239.947 1071.77 239.82 1071.96 239.78L1073.12 239.56V232.34C1072.45 232.22 1072.06 232.14 1071.96 232.1C1071.77 232.06 1071.68 231.933 1071.68 231.72V230.88H1074.16C1074.4 230.88 1074.56 231 1074.64 231.24L1074.78 232.28V232.3ZM1093.93 230.72C1094.52 230.72 1095.07 230.82 1095.59 231.02C1096.12 231.22 1096.56 231.507 1096.91 231.88C1097.31 232.307 1097.6 232.78 1097.79 233.3C1098 233.9 1098.11 234.54 1098.11 235.22C1098.11 235.527 1098.08 235.713 1098.03 235.78C1097.96 235.873 1097.84 235.92 1097.67 235.92H1090.95C1090.95 236.56 1091.03 237.12 1091.19 237.6C1091.32 238.013 1091.55 238.4 1091.87 238.76C1092.16 239.093 1092.5 239.333 1092.87 239.48C1093.27 239.64 1093.7 239.72 1094.15 239.72C1094.63 239.72 1095.02 239.673 1095.31 239.58C1095.59 239.487 1095.87 239.373 1096.15 239.24C1096.44 239.093 1096.64 238.987 1096.75 238.92C1096.92 238.813 1097.06 238.76 1097.15 238.76C1097.3 238.76 1097.41 238.82 1097.49 238.94L1097.99 239.6C1097.8 239.84 1097.54 240.067 1097.19 240.28C1096.79 240.533 1096.46 240.7 1096.21 240.78C1095.81 240.913 1095.45 241.007 1095.13 241.06C1094.73 241.127 1094.36 241.16 1094.03 241.16C1093.34 241.16 1092.69 241.04 1092.09 240.8C1091.52 240.573 1091 240.22 1090.55 239.74C1090.12 239.3 1089.79 238.733 1089.55 238.04C1089.31 237.36 1089.19 236.587 1089.19 235.72C1089.19 235.027 1089.3 234.373 1089.53 233.76C1089.76 233.133 1090.07 232.6 1090.47 232.16C1090.88 231.707 1091.38 231.353 1091.97 231.1C1092.56 230.847 1093.21 230.72 1093.93 230.72ZM1093.97 232.02C1093.1 232.02 1092.43 232.267 1091.95 232.76C1091.46 233.28 1091.15 233.973 1091.03 234.84H1096.53C1096.53 234.427 1096.47 234.053 1096.35 233.72C1096.2 233.307 1096.04 233.007 1095.87 232.82C1095.64 232.58 1095.37 232.387 1095.05 232.24C1094.74 232.107 1094.38 232.04 1093.95 232.04L1093.97 232.02ZM1102.43 232.32C1103.43 231.24 1104.55 230.7 1105.79 230.7C1106.89 230.7 1107.73 231.053 1108.31 231.76C1108.89 232.453 1109.17 233.38 1109.17 234.54V239.52C1109.81 239.64 1110.19 239.72 1110.31 239.76C1110.53 239.8 1110.63 239.927 1110.63 240.14V241H1107.39V234.56C1107.39 232.933 1106.69 232.12 1105.27 232.12C1104.27 232.12 1103.35 232.593 1102.51 233.54V239.54C1102.57 239.54 1102.95 239.62 1103.67 239.78C1103.87 239.82 1103.97 239.947 1103.97 240.16V241H1099.31V240.16C1099.31 239.947 1099.41 239.82 1099.59 239.78L1100.75 239.56V232.34C1100.09 232.22 1099.7 232.14 1099.59 232.1C1099.41 232.06 1099.31 231.933 1099.31 231.72V230.88H1101.79C1102.03 230.88 1102.19 231 1102.27 231.24L1102.43 232.34V232.32ZM1115.97 230.68C1117.09 230.68 1118.01 231.08 1118.73 231.88V227.72L1117.39 227.48C1117.19 227.44 1117.09 227.32 1117.09 227.12V226.24H1120.49V239.52C1121.16 239.64 1121.55 239.72 1121.65 239.76C1121.84 239.8 1121.93 239.92 1121.93 240.12V241H1119.45C1119.21 241 1119.05 240.873 1118.97 240.62L1118.81 239.4C1117.87 240.547 1116.73 241.12 1115.41 241.12C1114.23 241.12 1113.29 240.68 1112.61 239.8C1111.92 238.88 1111.57 237.6 1111.57 235.96C1111.57 234.427 1111.97 233.173 1112.75 232.2C1113.57 231.187 1114.64 230.68 1115.97 230.68ZM1116.01 239.7C1117.07 239.7 1117.97 239.187 1118.73 238.16V233.28C1118.13 232.48 1117.35 232.08 1116.39 232.08C1115.42 232.08 1114.68 232.413 1114.17 233.08C1113.67 233.747 1113.41 234.707 1113.41 235.96C1113.41 237.867 1113.91 239.04 1114.89 239.48C1115.2 239.613 1115.57 239.68 1115.99 239.68L1116.01 239.7ZM1131.86 239.72C1131.96 239.733 1132.03 239.78 1132.08 239.86C1132.14 239.927 1132.16 240.007 1132.16 240.1V240.96H1130.08C1129.96 240.96 1129.82 240.933 1129.66 240.88C1129.57 240.853 1129.5 240.747 1129.46 240.56L1129.26 239.6L1128.46 240.26C1128.24 240.447 1127.97 240.607 1127.66 240.74C1127.37 240.873 1127.08 240.973 1126.78 241.04C1126.52 241.107 1126.16 241.14 1125.7 241.14C1125.33 241.14 1124.97 241.08 1124.62 240.96C1124.21 240.813 1123.91 240.653 1123.72 240.48C1123.48 240.267 1123.28 239.987 1123.12 239.64C1122.98 239.333 1122.9 238.933 1122.9 238.44C1122.9 238.013 1123.01 237.627 1123.22 237.28C1123.46 236.893 1123.82 236.56 1124.3 236.28C1124.84 235.973 1125.48 235.733 1126.22 235.56C1127 235.387 1127.97 235.3 1129.14 235.3V234.52C1129.14 233.733 1128.97 233.133 1128.62 232.72C1128.28 232.307 1127.78 232.1 1127.12 232.1C1126.7 232.1 1126.33 232.16 1126.02 232.28C1125.68 232.413 1125.42 232.533 1125.26 232.64C1125.18 232.693 1125.09 232.753 1124.98 232.82C1124.89 232.873 1124.79 232.933 1124.68 233C1124.54 233.107 1124.38 233.16 1124.22 233.16C1124.08 233.16 1123.97 233.133 1123.9 233.08C1123.82 233.013 1123.76 232.933 1123.7 232.84L1123.38 232.28C1123.9 231.773 1124.5 231.373 1125.18 231.08C1125.8 230.813 1126.52 230.68 1127.34 230.68C1127.94 230.68 1128.45 230.773 1128.86 230.96C1129.32 231.16 1129.68 231.413 1129.96 231.72C1130.26 232.027 1130.48 232.427 1130.64 232.92C1130.79 233.36 1130.86 233.88 1130.86 234.48V239.54C1131.5 239.673 1131.84 239.747 1131.86 239.76V239.72ZM1129.1 236.44C1128.24 236.44 1127.54 236.487 1127.02 236.58C1126.52 236.673 1126.05 236.813 1125.62 237C1125.25 237.173 1124.98 237.373 1124.82 237.6C1124.66 237.84 1124.58 238.093 1124.58 238.36C1124.58 238.573 1124.63 238.8 1124.72 239.04C1124.8 239.24 1124.92 239.4 1125.08 239.52C1125.24 239.64 1125.42 239.727 1125.6 239.78C1125.83 239.847 1126.05 239.88 1126.26 239.88C1126.53 239.88 1126.81 239.847 1127.1 239.78C1127.37 239.713 1127.62 239.627 1127.84 239.52C1128.04 239.427 1128.26 239.28 1128.5 239.08C1128.64 238.973 1128.84 238.787 1129.1 238.52V236.44ZM1136.41 241.16C1135.64 241.16 1135.02 240.933 1134.57 240.48C1134.14 240.053 1133.93 239.413 1133.93 238.56V232.36H1132.71C1132.59 232.36 1132.5 232.333 1132.43 232.28C1132.36 232.227 1132.33 232.127 1132.33 231.98V231.28L1133.99 231.06L1134.39 227.92C1134.39 227.813 1134.43 227.733 1134.51 227.68C1134.58 227.627 1134.67 227.6 1134.79 227.6H1135.69V231.08H1138.59V232.38H1135.69V238.46C1135.69 238.9 1135.79 239.22 1135.99 239.42C1136.19 239.62 1136.46 239.72 1136.81 239.72C1136.96 239.72 1137.12 239.693 1137.31 239.64C1137.43 239.6 1137.55 239.547 1137.67 239.48C1137.71 239.453 1137.75 239.427 1137.79 239.4C1137.83 239.373 1137.87 239.347 1137.91 239.32C1138.02 239.267 1138.08 239.24 1138.11 239.24C1138.2 239.24 1138.28 239.293 1138.35 239.4L1138.87 240.24C1138.51 240.547 1138.14 240.773 1137.75 240.92C1137.31 241.08 1136.86 241.16 1136.41 241.16ZM1141.42 228.58C1141.31 228.473 1141.22 228.34 1141.14 228.18C1141.07 228.047 1141.04 227.887 1141.04 227.7C1141.04 227.5 1141.07 227.333 1141.14 227.2C1141.23 227.013 1141.32 226.873 1141.42 226.78C1141.52 226.673 1141.66 226.58 1141.82 226.5C1141.95 226.433 1142.11 226.4 1142.3 226.4C1142.48 226.4 1142.64 226.433 1142.78 226.5C1142.94 226.58 1143.07 226.673 1143.18 226.78C1143.27 226.873 1143.36 227.013 1143.46 227.2C1143.54 227.36 1143.58 227.527 1143.58 227.7C1143.58 227.86 1143.54 228.02 1143.46 228.18C1143.38 228.34 1143.28 228.473 1143.18 228.58C1143.07 228.687 1142.94 228.78 1142.78 228.86C1142.64 228.927 1142.48 228.96 1142.3 228.96C1142.11 228.96 1141.95 228.927 1141.82 228.86C1141.66 228.78 1141.52 228.687 1141.42 228.58ZM1144.32 239.76C1144.41 239.773 1144.48 239.82 1144.54 239.9C1144.59 239.967 1144.62 240.047 1144.62 240.14V241H1139.96V240.14C1139.96 240.047 1139.98 239.967 1140.04 239.9C1140.09 239.82 1140.16 239.773 1140.26 239.76L1141.42 239.54V232.32L1140.26 232.1C1140.16 232.087 1140.09 232.047 1140.04 231.98C1139.98 231.9 1139.96 231.813 1139.96 231.72V230.88H1143.18V239.54L1144.32 239.76ZM1150.4 230.72C1151.13 230.72 1151.8 230.84 1152.4 231.08C1152.98 231.32 1153.5 231.667 1153.94 232.12C1154.35 232.547 1154.67 233.093 1154.9 233.76C1155.12 234.413 1155.24 235.133 1155.24 235.92C1155.24 236.707 1155.12 237.427 1154.9 238.08C1154.67 238.747 1154.35 239.293 1153.94 239.72C1153.5 240.173 1152.98 240.52 1152.4 240.76C1151.8 241 1151.13 241.12 1150.4 241.12C1149.66 241.12 1149 241 1148.4 240.76C1147.81 240.52 1147.3 240.173 1146.86 239.72C1146.46 239.307 1146.13 238.76 1145.88 238.08C1145.66 237.507 1145.56 236.787 1145.56 235.92C1145.56 235.053 1145.66 234.333 1145.88 233.76C1146.13 233.08 1146.46 232.533 1146.86 232.12C1147.3 231.667 1147.81 231.32 1148.4 231.08C1149 230.84 1149.66 230.72 1150.4 230.72ZM1150.4 239.76C1151.42 239.76 1152.17 239.427 1152.64 238.76C1153.13 238.067 1153.38 237.127 1153.38 235.94C1153.38 234.753 1153.13 233.813 1152.64 233.12C1152.17 232.453 1151.42 232.12 1150.4 232.12C1149.88 232.12 1149.44 232.2 1149.08 232.36C1148.73 232.52 1148.42 232.773 1148.16 233.12C1147.9 233.467 1147.72 233.867 1147.6 234.32C1147.46 234.853 1147.4 235.4 1147.4 235.96C1147.4 236.493 1147.46 237.027 1147.6 237.56C1147.72 238.013 1147.9 238.413 1148.16 238.76C1148.38 239.067 1148.69 239.307 1149.08 239.48C1149.5 239.667 1149.94 239.76 1150.4 239.76ZM1159.48 232.32C1160.48 231.24 1161.6 230.7 1162.84 230.7C1163.94 230.7 1164.78 231.053 1165.36 231.76C1165.94 232.453 1166.22 233.38 1166.22 234.54V239.52C1166.86 239.64 1167.24 239.72 1167.36 239.76C1167.58 239.8 1167.68 239.927 1167.68 240.14V241H1164.44V234.56C1164.44 232.933 1163.74 232.12 1162.32 232.12C1161.32 232.12 1160.4 232.593 1159.56 233.54V239.54C1159.62 239.54 1160 239.62 1160.72 239.78C1160.92 239.82 1161.02 239.947 1161.02 240.16V241H1156.36V240.16C1156.36 239.947 1156.46 239.82 1156.64 239.78L1157.8 239.56V232.34C1157.14 232.22 1156.75 232.14 1156.64 232.1C1156.46 232.06 1156.36 231.933 1156.36 231.72V230.88H1158.84C1159.08 230.88 1159.24 231 1159.32 231.24L1159.48 232.34V232.32ZM1172.8 230.72C1173.5 230.72 1174.38 230.9 1175.44 231.26V233.86H1174.66C1174.48 233.86 1174.36 233.767 1174.32 233.58L1174.2 232.26C1173.58 232.113 1173.06 232.04 1172.64 232.04H1172.62C1172.08 232.04 1171.62 232.187 1171.24 232.48C1170.88 232.76 1170.7 233.067 1170.7 233.4C1170.7 233.747 1170.78 234 1170.94 234.16C1171.21 234.467 1171.6 234.7 1172.1 234.86L1172.7 235.04C1172.81 235.067 1173.02 235.133 1173.34 235.24L1174.3 235.6C1174.57 235.693 1174.85 235.867 1175.14 236.12C1175.69 236.547 1175.96 237.133 1175.96 237.88C1175.96 238.853 1175.64 239.627 1174.98 240.2C1174.28 240.827 1173.38 241.14 1172.3 241.14C1171.2 241.14 1170.1 240.96 1169.02 240.6V237.96H1169.74C1169.9 237.96 1170 238.04 1170.04 238.2L1170.16 239.48C1170.7 239.747 1171.38 239.88 1172.22 239.88C1172.86 239.88 1173.38 239.713 1173.78 239.38C1174.13 239.073 1174.3 238.733 1174.3 238.36C1174.3 237.973 1174.22 237.693 1174.06 237.52C1173.88 237.307 1173.68 237.147 1173.46 237.04C1173.17 236.893 1172.89 236.787 1172.62 236.72C1171.64 236.4 1171.02 236.187 1170.76 236.08C1170.44 235.933 1170.14 235.747 1169.86 235.52C1169.3 235.053 1169.02 234.427 1169.02 233.64C1169.02 232.84 1169.34 232.16 1169.98 231.6C1170.65 231.013 1171.59 230.72 1172.8 230.72Z" fill="#0D606F"/>
<rect x="969" y="93" width="100" height="100" rx="16" fill="#F2785C"/>
<path d="M1042.93 163.955C1042.93 164.497 1042.72 165.017 1042.34 165.401C1041.96 165.785 1041.44 166 1040.91 166H1004.49C1003.95 166 1003.44 165.785 1003.06 165.401C1002.68 165.017 1002.47 164.497 1002.47 163.955C1002.47 163.412 1002.68 162.892 1003.06 162.508C1003.44 162.125 1003.95 161.909 1004.49 161.909H1040.91C1041.44 161.909 1041.96 162.125 1042.34 162.508C1042.72 162.892 1042.93 163.412 1042.93 163.955ZM1049 143.5V149.636C1049 150.179 1048.79 150.699 1048.41 151.083C1048.03 151.466 1047.51 151.682 1046.98 151.682H1002.42C1000.24 151.689 998.119 150.983 996.373 149.67C994.627 148.356 993.349 146.505 992.731 144.395L989.165 132.403C988.988 131.79 988.953 131.143 989.062 130.514C989.172 129.884 989.423 129.288 989.797 128.773C990.179 128.264 990.673 127.852 991.239 127.568C991.805 127.284 992.428 127.136 993.06 127.136H997.409C997.705 127.137 997.996 127.204 998.263 127.332C998.53 127.46 998.765 127.647 998.952 127.878L1003.4 133.273H1007.75L1005.48 126.395C1005.27 125.779 1005.22 125.122 1005.31 124.48C1005.41 123.837 1005.65 123.227 1006.03 122.7C1006.4 122.172 1006.9 121.743 1007.47 121.448C1008.04 121.152 1008.68 120.999 1009.32 121H1013.59C1013.88 120.999 1014.15 121.057 1014.41 121.172C1014.67 121.286 1014.9 121.454 1015.09 121.665L1025.61 133.273H1038.88C1041.57 133.273 1044.14 134.35 1046.04 136.268C1047.93 138.186 1049 140.788 1049 143.5ZM1044.95 143.5C1044.95 141.875 1044.31 140.318 1043.17 139.168C1042.03 138.019 1040.49 137.37 1038.88 137.364H1024.72C1024.44 137.365 1024.16 137.307 1023.91 137.192C1023.65 137.078 1023.42 136.91 1023.23 136.699L1012.71 125.091H1009.32L1012.48 134.679C1012.58 134.986 1012.61 135.313 1012.56 135.633C1012.51 135.953 1012.39 136.256 1012.2 136.52C1012.02 136.784 1011.77 136.998 1011.48 137.145C1011.2 137.292 1010.88 137.367 1010.56 137.364H1002.47C1002.17 137.363 1001.88 137.296 1001.61 137.168C1001.35 137.04 1001.11 136.853 1000.92 136.622L996.474 131.227H993.034L996.6 143.219C996.972 144.485 997.74 145.596 998.788 146.384C999.837 147.172 1001.11 147.596 1002.42 147.591H1044.95V143.5Z" fill="white"/>
<path d="M485.48 233.42C486.92 234.06 487.64 235.133 487.64 236.64C487.64 237.96 487.227 239.033 486.4 239.86C485.533 240.727 484.347 241.16 482.84 241.16C482.213 241.16 481.56 241.1 480.88 240.98C480.347 240.887 479.813 240.76 479.28 240.6L478.7 240.4V236.8H479.68C479.907 236.8 480.04 236.913 480.08 237.14C480.107 237.247 480.14 237.573 480.18 238.12L480.24 239C481.28 239.373 482.093 239.56 482.68 239.56C483.267 239.56 483.76 239.493 484.16 239.36C484.547 239.24 484.853 239.06 485.08 238.82C485.587 238.353 485.84 237.72 485.84 236.92C485.84 236.147 485.48 235.56 484.76 235.16C484.44 234.96 484.08 234.8 483.68 234.68C482.253 234.24 481.413 233.96 481.16 233.84C480.773 233.667 480.407 233.427 480.06 233.12C479.353 232.493 479 231.6 479 230.44C479 229.387 479.38 228.48 480.14 227.72C480.967 226.92 482.033 226.52 483.34 226.52C484.727 226.52 486.067 226.787 487.36 227.32V230.62H486.4C486.16 230.62 486.02 230.507 485.98 230.28C485.98 230.24 485.967 230.107 485.94 229.88C485.927 229.64 485.893 229.18 485.84 228.5C484.907 228.247 484.12 228.12 483.48 228.12C482.613 228.12 481.947 228.333 481.48 228.76C481.027 229.173 480.8 229.707 480.8 230.36C480.8 231.067 481.16 231.62 481.88 232.02C482.173 232.207 482.547 232.373 483 232.52C484.2 232.92 485.04 233.22 485.52 233.42H485.48ZM492.037 232.24C493.011 231.227 494.091 230.72 495.277 230.72C496.357 230.72 497.197 231.067 497.797 231.76C498.384 232.453 498.677 233.387 498.677 234.56V239.54C499.317 239.66 499.697 239.74 499.817 239.78C500.017 239.82 500.117 239.947 500.117 240.16V241H496.897V234.56C496.897 232.947 496.184 232.14 494.757 232.14C493.784 232.14 492.877 232.613 492.037 233.56V239.56L492.277 239.6L493.157 239.78C493.371 239.82 493.477 239.947 493.477 240.16V241H488.797V240.16C488.797 239.947 488.904 239.82 489.117 239.78L490.237 239.56V227.74C489.477 227.62 489.037 227.54 488.917 227.5C488.704 227.46 488.597 227.333 488.597 227.12V226.28H492.037V232.24ZM510.057 239.72C510.151 239.733 510.224 239.78 510.277 239.86C510.331 239.927 510.357 240.007 510.357 240.1V240.96H508.277C508.157 240.96 508.017 240.933 507.857 240.88C507.764 240.853 507.697 240.747 507.657 240.56L507.457 239.6L506.657 240.26C506.431 240.447 506.164 240.607 505.857 240.74C505.564 240.873 505.271 240.973 504.977 241.04C504.711 241.107 504.351 241.14 503.897 241.14C503.524 241.14 503.164 241.08 502.817 240.96C502.404 240.813 502.104 240.653 501.917 240.48C501.677 240.267 501.477 239.987 501.317 239.64C501.171 239.333 501.097 238.933 501.097 238.44C501.097 238.013 501.204 237.627 501.417 237.28C501.657 236.893 502.017 236.56 502.497 236.28C503.031 235.973 503.671 235.733 504.417 235.56C505.191 235.387 506.164 235.3 507.337 235.3V234.52C507.337 233.733 507.164 233.133 506.817 232.72C506.471 232.307 505.971 232.1 505.317 232.1C504.891 232.1 504.524 232.16 504.217 232.28C503.871 232.413 503.617 232.533 503.457 232.64C503.377 232.693 503.284 232.753 503.177 232.82C503.084 232.873 502.984 232.933 502.877 233C502.731 233.107 502.577 233.16 502.417 233.16C502.271 233.16 502.164 233.133 502.097 233.08C502.017 233.013 501.951 232.933 501.897 232.84L501.577 232.28C502.097 231.773 502.697 231.373 503.377 231.08C503.991 230.813 504.711 230.68 505.537 230.68C506.137 230.68 506.644 230.773 507.057 230.96C507.511 231.16 507.877 231.413 508.157 231.72C508.451 232.027 508.677 232.427 508.837 232.92C508.984 233.36 509.057 233.88 509.057 234.48V239.54C509.697 239.673 510.031 239.747 510.057 239.76V239.72ZM507.297 236.44C506.431 236.44 505.737 236.487 505.217 236.58C504.711 236.673 504.244 236.813 503.817 237C503.444 237.173 503.177 237.373 503.017 237.6C502.857 237.84 502.777 238.093 502.777 238.36C502.777 238.573 502.824 238.8 502.917 239.04C502.997 239.24 503.117 239.4 503.277 239.52C503.437 239.64 503.611 239.727 503.797 239.78C504.024 239.847 504.244 239.88 504.457 239.88C504.724 239.88 505.004 239.847 505.297 239.78C505.564 239.713 505.811 239.627 506.037 239.52C506.237 239.427 506.457 239.28 506.697 239.08C506.831 238.973 507.031 238.787 507.297 238.52V236.44ZM514.691 232.94C515.438 231.433 516.464 230.68 517.771 230.68C518.291 230.68 518.751 230.8 519.151 231.04L518.931 232.38C518.891 232.553 518.804 232.64 518.671 232.64C518.578 232.64 518.418 232.607 518.191 232.54C517.964 232.473 517.691 232.44 517.371 232.44C516.198 232.44 515.331 233.147 514.771 234.56V239.56L515.911 239.78C516.111 239.82 516.211 239.947 516.211 240.16V241H511.551V240.16C511.551 239.947 511.651 239.82 511.851 239.78L512.991 239.56V232.34C512.351 232.22 511.971 232.14 511.851 232.1C511.651 232.06 511.551 231.933 511.551 231.72V230.88H514.011C514.198 230.88 514.324 230.913 514.391 230.98C514.458 231.047 514.511 231.173 514.551 231.36L514.671 232.94H514.691ZM524.292 230.72C524.879 230.72 525.432 230.82 525.952 231.02C526.486 231.22 526.926 231.507 527.272 231.88C527.672 232.307 527.966 232.78 528.152 233.3C528.366 233.9 528.472 234.54 528.472 235.22C528.472 235.527 528.446 235.713 528.392 235.78C528.326 235.873 528.206 235.92 528.032 235.92H521.312C521.312 236.56 521.392 237.12 521.552 237.6C521.686 238.013 521.912 238.4 522.232 238.76C522.526 239.093 522.859 239.333 523.232 239.48C523.632 239.64 524.059 239.72 524.512 239.72C524.992 239.72 525.379 239.673 525.672 239.58C525.952 239.487 526.232 239.373 526.512 239.24C526.806 239.093 527.006 238.987 527.112 238.92C527.286 238.813 527.419 238.76 527.512 238.76C527.659 238.76 527.772 238.82 527.852 238.94L528.352 239.6C528.166 239.84 527.899 240.067 527.552 240.28C527.152 240.533 526.826 240.7 526.572 240.78C526.172 240.913 525.812 241.007 525.492 241.06C525.092 241.127 524.726 241.16 524.392 241.16C523.699 241.16 523.052 241.04 522.452 240.8C521.879 240.573 521.366 240.22 520.912 239.74C520.486 239.3 520.152 238.733 519.912 238.04C519.672 237.36 519.552 236.587 519.552 235.72C519.552 235.027 519.666 234.373 519.892 233.76C520.119 233.133 520.432 232.6 520.832 232.16C521.246 231.707 521.746 231.353 522.332 231.1C522.919 230.847 523.572 230.72 524.292 230.72ZM524.332 232.02C523.466 232.02 522.792 232.267 522.312 232.76C521.819 233.28 521.512 233.973 521.392 234.84H526.892C526.892 234.427 526.832 234.053 526.712 233.72C526.566 233.307 526.406 233.007 526.232 232.82C526.006 232.58 525.732 232.387 525.412 232.24C525.106 232.107 524.739 232.04 524.312 232.04L524.332 232.02ZM538.933 239.76C539.933 239.76 540.846 239.293 541.673 238.36V232.36C541.553 232.32 541.173 232.24 540.533 232.12C540.333 232.08 540.233 231.953 540.233 231.74V230.88H543.453V239.56C544.093 239.68 544.473 239.76 544.593 239.8C544.793 239.84 544.893 239.96 544.893 240.16V241.02H542.393C542.153 241.02 541.993 240.893 541.913 240.64L541.773 239.56C540.813 240.64 539.693 241.18 538.413 241.18C537.333 241.18 536.493 240.827 535.893 240.12C535.306 239.413 535.013 238.487 535.013 237.34V232.34C534.4 232.22 534.026 232.14 533.893 232.1C533.68 232.06 533.573 231.933 533.573 231.72V230.88H536.813V237.32C536.813 238.12 536.986 238.72 537.333 239.12C537.693 239.533 538.226 239.74 538.933 239.74V239.76ZM550.042 230.72C550.735 230.72 551.615 230.9 552.682 231.26V233.86H551.902C551.715 233.86 551.602 233.767 551.562 233.58L551.442 232.26C550.815 232.113 550.295 232.04 549.882 232.04H549.862C549.315 232.04 548.855 232.187 548.482 232.48C548.122 232.76 547.942 233.067 547.942 233.4C547.942 233.747 548.022 234 548.182 234.16C548.449 234.467 548.835 234.7 549.342 234.86L549.942 235.04C550.049 235.067 550.262 235.133 550.582 235.24L551.542 235.6C551.809 235.693 552.089 235.867 552.382 236.12C552.929 236.547 553.202 237.133 553.202 237.88C553.202 238.853 552.875 239.627 552.222 240.2C551.515 240.827 550.622 241.14 549.542 241.14C548.435 241.14 547.342 240.96 546.262 240.6V237.96H546.982C547.142 237.96 547.242 238.04 547.282 238.2L547.402 239.48C547.935 239.747 548.622 239.88 549.462 239.88C550.102 239.88 550.622 239.713 551.022 239.38C551.369 239.073 551.542 238.733 551.542 238.36C551.542 237.973 551.462 237.693 551.302 237.52C551.115 237.307 550.915 237.147 550.702 237.04C550.409 236.893 550.129 236.787 549.862 236.72C548.875 236.4 548.255 236.187 548.002 236.08C547.682 235.933 547.382 235.747 547.102 235.52C546.542 235.053 546.262 234.427 546.262 233.64C546.262 232.84 546.582 232.16 547.222 231.6C547.889 231.013 548.829 230.72 550.042 230.72ZM561.362 232.44C562.335 231.267 563.469 230.68 564.762 230.68C565.949 230.68 566.882 231.12 567.562 232C568.255 232.933 568.602 234.227 568.602 235.88C568.602 237.4 568.215 238.647 567.442 239.62C566.629 240.633 565.602 241.14 564.362 241.14C563.122 241.14 562.149 240.747 561.442 239.96V242.96L561.982 243.08L562.562 243.2C562.775 243.24 562.882 243.367 562.882 243.58V244.44H558.202V243.58C558.202 243.367 558.309 243.24 558.522 243.2L559.642 242.98V232.34C559.029 232.22 558.655 232.14 558.522 232.1C558.309 232.06 558.202 231.933 558.202 231.72V230.88H560.722C560.962 230.88 561.122 231 561.202 231.24L561.342 232.44H561.362ZM561.442 238.56C562.042 239.36 562.815 239.76 563.762 239.76C564.749 239.76 565.495 239.427 566.002 238.76C566.509 238.093 566.762 237.133 566.762 235.88C566.762 234.64 566.542 233.707 566.102 233.08C565.662 232.44 565.015 232.12 564.162 232.12C563.109 232.12 562.202 232.633 561.442 233.66V238.56ZM572.855 232.94C573.602 231.433 574.628 230.68 575.935 230.68C576.455 230.68 576.915 230.8 577.315 231.04L577.095 232.38C577.055 232.553 576.968 232.64 576.835 232.64C576.742 232.64 576.582 232.607 576.355 232.54C576.128 232.473 575.855 232.44 575.535 232.44C574.362 232.44 573.495 233.147 572.935 234.56V239.56L574.075 239.78C574.275 239.82 574.375 239.947 574.375 240.16V241H569.715V240.16C569.715 239.947 569.815 239.82 570.015 239.78L571.155 239.56V232.34C570.515 232.22 570.135 232.14 570.015 232.1C569.815 232.06 569.715 231.933 569.715 231.72V230.88H572.175C572.362 230.88 572.488 230.913 572.555 230.98C572.622 231.047 572.675 231.173 572.715 231.36L572.835 232.94H572.855ZM582.456 230.72C583.043 230.72 583.596 230.82 584.116 231.02C584.65 231.22 585.09 231.507 585.436 231.88C585.836 232.307 586.13 232.78 586.316 233.3C586.53 233.9 586.636 234.54 586.636 235.22C586.636 235.527 586.61 235.713 586.556 235.78C586.49 235.873 586.37 235.92 586.196 235.92H579.476C579.476 236.56 579.556 237.12 579.716 237.6C579.85 238.013 580.076 238.4 580.396 238.76C580.69 239.093 581.023 239.333 581.396 239.48C581.796 239.64 582.223 239.72 582.676 239.72C583.156 239.72 583.543 239.673 583.836 239.58C584.116 239.487 584.396 239.373 584.676 239.24C584.97 239.093 585.17 238.987 585.276 238.92C585.45 238.813 585.583 238.76 585.676 238.76C585.823 238.76 585.936 238.82 586.016 238.94L586.516 239.6C586.33 239.84 586.063 240.067 585.716 240.28C585.316 240.533 584.99 240.7 584.736 240.78C584.336 240.913 583.976 241.007 583.656 241.06C583.256 241.127 582.89 241.16 582.556 241.16C581.863 241.16 581.216 241.04 580.616 240.8C580.043 240.573 579.53 240.22 579.076 239.74C578.65 239.3 578.316 238.733 578.076 238.04C577.836 237.36 577.716 236.587 577.716 235.72C577.716 235.027 577.83 234.373 578.056 233.76C578.283 233.133 578.596 232.6 578.996 232.16C579.41 231.707 579.91 231.353 580.496 231.1C581.083 230.847 581.736 230.72 582.456 230.72ZM582.496 232.02C581.63 232.02 580.956 232.267 580.476 232.76C579.983 233.28 579.676 233.973 579.556 234.84H585.056C585.056 234.427 584.996 234.053 584.876 233.72C584.73 233.307 584.57 233.007 584.396 232.82C584.17 232.58 583.896 232.387 583.576 232.24C583.27 232.107 582.903 232.04 582.476 232.04L582.496 232.02ZM593.12 227.84C591.76 227.84 591.08 228.607 591.08 230.14V231.08H594V232.36H591.12V239.54C591.76 239.633 592.207 239.707 592.46 239.76C592.66 239.8 592.76 239.927 592.76 240.14V241H587.8V240.14C587.8 239.927 587.9 239.8 588.1 239.76L589.34 239.54V232.4L588.22 232.26C587.9 232.18 587.74 232.027 587.74 231.8V231.08H589.34V230.1C589.34 228.927 589.653 228.027 590.28 227.4C590.893 226.773 591.74 226.46 592.82 226.46C593.22 226.46 593.64 226.527 594.08 226.66L594.04 227.56C594.04 227.68 593.98 227.76 593.86 227.8C593.78 227.827 593.627 227.84 593.4 227.84H593.12ZM599.742 230.72C600.328 230.72 600.882 230.82 601.402 231.02C601.935 231.22 602.375 231.507 602.722 231.88C603.122 232.307 603.415 232.78 603.602 233.3C603.815 233.9 603.922 234.54 603.922 235.22C603.922 235.527 603.895 235.713 603.842 235.78C603.775 235.873 603.655 235.92 603.482 235.92H596.762C596.762 236.56 596.842 237.12 597.002 237.6C597.135 238.013 597.362 238.4 597.682 238.76C597.975 239.093 598.308 239.333 598.682 239.48C599.082 239.64 599.508 239.72 599.962 239.72C600.442 239.72 600.828 239.673 601.122 239.58C601.402 239.487 601.682 239.373 601.962 239.24C602.255 239.093 602.455 238.987 602.562 238.92C602.735 238.813 602.868 238.76 602.962 238.76C603.108 238.76 603.222 238.82 603.302 238.94L603.802 239.6C603.615 239.84 603.348 240.067 603.002 240.28C602.602 240.533 602.275 240.7 602.022 240.78C601.622 240.913 601.262 241.007 600.942 241.06C600.542 241.127 600.175 241.16 599.842 241.16C599.148 241.16 598.502 241.04 597.902 240.8C597.328 240.573 596.815 240.22 596.362 239.74C595.935 239.3 595.602 238.733 595.362 238.04C595.122 237.36 595.002 236.587 595.002 235.72C595.002 235.027 595.115 234.373 595.342 233.76C595.568 233.133 595.882 232.6 596.282 232.16C596.695 231.707 597.195 231.353 597.782 231.1C598.368 230.847 599.022 230.72 599.742 230.72ZM599.782 232.02C598.915 232.02 598.242 232.267 597.762 232.76C597.268 233.28 596.962 233.973 596.842 234.84H602.342C602.342 234.427 602.282 234.053 602.162 233.72C602.015 233.307 601.855 233.007 601.682 232.82C601.455 232.58 601.182 232.387 600.862 232.24C600.555 232.107 600.188 232.04 599.762 232.04L599.782 232.02ZM608.265 232.94C609.012 231.433 610.039 230.68 611.345 230.68C611.865 230.68 612.325 230.8 612.725 231.04L612.505 232.38C612.465 232.553 612.379 232.64 612.245 232.64C612.152 232.64 611.992 232.607 611.765 232.54C611.539 232.473 611.265 232.44 610.945 232.44C609.772 232.44 608.905 233.147 608.345 234.56V239.56L609.485 239.78C609.685 239.82 609.785 239.947 609.785 240.16V241H605.125V240.16C605.125 239.947 605.225 239.82 605.425 239.78L606.565 239.56V232.34C605.925 232.22 605.545 232.14 605.425 232.1C605.225 232.06 605.125 231.933 605.125 231.72V230.88H607.585C607.772 230.88 607.899 230.913 607.965 230.98C608.032 231.047 608.085 231.173 608.125 231.36L608.245 232.94H608.265ZM622.147 239.72C622.24 239.733 622.314 239.78 622.367 239.86C622.42 239.927 622.447 240.007 622.447 240.1V240.96H620.367C620.247 240.96 620.107 240.933 619.947 240.88C619.854 240.853 619.787 240.747 619.747 240.56L619.547 239.6L618.747 240.26C618.52 240.447 618.254 240.607 617.947 240.74C617.654 240.873 617.36 240.973 617.067 241.04C616.8 241.107 616.44 241.14 615.987 241.14C615.614 241.14 615.254 241.08 614.907 240.96C614.494 240.813 614.194 240.653 614.007 240.48C613.767 240.267 613.567 239.987 613.407 239.64C613.26 239.333 613.187 238.933 613.187 238.44C613.187 238.013 613.294 237.627 613.507 237.28C613.747 236.893 614.107 236.56 614.587 236.28C615.12 235.973 615.76 235.733 616.507 235.56C617.28 235.387 618.254 235.3 619.427 235.3V234.52C619.427 233.733 619.254 233.133 618.907 232.72C618.56 232.307 618.06 232.1 617.407 232.1C616.98 232.1 616.614 232.16 616.307 232.28C615.96 232.413 615.707 232.533 615.547 232.64C615.467 232.693 615.374 232.753 615.267 232.82C615.174 232.873 615.074 232.933 614.967 233C614.82 233.107 614.667 233.16 614.507 233.16C614.36 233.16 614.254 233.133 614.187 233.08C614.107 233.013 614.04 232.933 613.987 232.84L613.667 232.28C614.187 231.773 614.787 231.373 615.467 231.08C616.08 230.813 616.8 230.68 617.627 230.68C618.227 230.68 618.734 230.773 619.147 230.96C619.6 231.16 619.967 231.413 620.247 231.72C620.54 232.027 620.767 232.427 620.927 232.92C621.074 233.36 621.147 233.88 621.147 234.48V239.54C621.787 239.673 622.12 239.747 622.147 239.76V239.72ZM619.387 236.44C618.52 236.44 617.827 236.487 617.307 236.58C616.8 236.673 616.334 236.813 615.907 237C615.534 237.173 615.267 237.373 615.107 237.6C614.947 237.84 614.867 238.093 614.867 238.36C614.867 238.573 614.914 238.8 615.007 239.04C615.087 239.24 615.207 239.4 615.367 239.52C615.527 239.64 615.7 239.727 615.887 239.78C616.114 239.847 616.334 239.88 616.547 239.88C616.814 239.88 617.094 239.847 617.387 239.78C617.654 239.713 617.9 239.627 618.127 239.52C618.327 239.427 618.547 239.28 618.787 239.08C618.92 238.973 619.12 238.787 619.387 238.52V236.44ZM633.314 235.94C633.314 236.78 633.194 237.52 632.954 238.16C632.7 238.827 632.38 239.373 631.994 239.8C631.607 240.227 631.14 240.56 630.594 240.8C630.06 241.04 629.474 241.16 628.834 241.16C627.7 241.16 626.207 240.973 624.354 240.6V227.72L623.914 227.66L623.074 227.52C622.98 227.507 622.907 227.467 622.854 227.4C622.8 227.32 622.774 227.233 622.774 227.14V226.28H626.154V232.34C626.58 231.847 627.06 231.453 627.594 231.16C628.127 230.867 628.74 230.72 629.434 230.72C630.034 230.72 630.567 230.827 631.034 231.04C631.5 231.253 631.9 231.587 632.234 232.04C632.567 232.507 632.82 233.04 632.994 233.64C633.18 234.307 633.274 235.053 633.274 235.88H633.314V235.94ZM630.694 238.72C630.947 238.387 631.14 237.987 631.274 237.52C631.407 237.027 631.474 236.52 631.474 236V235.84C631.474 235.147 631.42 234.587 631.314 234.16C631.194 233.707 631.02 233.32 630.794 233C630.554 232.68 630.287 232.453 629.994 232.32C629.687 232.187 629.32 232.12 628.894 232.12C628.28 232.12 627.767 232.253 627.354 232.52C626.914 232.8 626.514 233.18 626.154 233.66V239.44C626.34 239.493 626.62 239.56 626.994 239.64C627.38 239.707 627.767 239.747 628.154 239.76H628.674C629.114 239.733 629.474 239.653 629.754 239.52C630.1 239.36 630.407 239.107 630.674 238.76L630.694 238.72ZM638.742 239.76C638.956 239.8 639.062 239.927 639.062 240.14V241H634.382V240.14C634.382 239.927 634.489 239.8 634.702 239.76L635.822 239.54V227.72C635.209 227.6 634.836 227.52 634.702 227.48C634.489 227.44 634.382 227.32 634.382 227.12V226.26H637.622V239.52C638.236 239.64 638.609 239.72 638.742 239.76ZM644.683 230.72C645.27 230.72 645.823 230.82 646.343 231.02C646.876 231.22 647.316 231.507 647.663 231.88C648.063 232.307 648.356 232.78 648.543 233.3C648.756 233.9 648.863 234.54 648.863 235.22C648.863 235.527 648.836 235.713 648.783 235.78C648.716 235.873 648.596 235.92 648.423 235.92H641.703C641.703 236.56 641.783 237.12 641.943 237.6C642.076 238.013 642.303 238.4 642.623 238.76C642.916 239.093 643.25 239.333 643.623 239.48C644.023 239.64 644.45 239.72 644.903 239.72C645.383 239.72 645.77 239.673 646.063 239.58C646.343 239.487 646.623 239.373 646.903 239.24C647.196 239.093 647.396 238.987 647.503 238.92C647.676 238.813 647.81 238.76 647.903 238.76C648.05 238.76 648.163 238.82 648.243 238.94L648.743 239.6C648.556 239.84 648.29 240.067 647.943 240.28C647.543 240.533 647.216 240.7 646.963 240.78C646.563 240.913 646.203 241.007 645.883 241.06C645.483 241.127 645.116 241.16 644.783 241.16C644.09 241.16 643.443 241.04 642.843 240.8C642.27 240.573 641.756 240.22 641.303 239.74C640.876 239.3 640.543 238.733 640.303 238.04C640.063 237.36 639.943 236.587 639.943 235.72C639.943 235.027 640.056 234.373 640.283 233.76C640.51 233.133 640.823 232.6 641.223 232.16C641.636 231.707 642.136 231.353 642.723 231.1C643.31 230.847 643.963 230.72 644.683 230.72ZM644.723 232.02C643.856 232.02 643.183 232.267 642.703 232.76C642.21 233.28 641.903 233.973 641.783 234.84H647.283C647.283 234.427 647.223 234.053 647.103 233.72C646.956 233.307 646.796 233.007 646.623 232.82C646.396 232.58 646.123 232.387 645.803 232.24C645.496 232.107 645.13 232.04 644.703 232.04L644.723 232.02ZM658.524 230.68C659.644 230.68 660.564 231.08 661.284 231.88V227.72L659.944 227.48C659.744 227.44 659.644 227.32 659.644 227.12V226.24H663.044V239.52C663.71 239.64 664.097 239.72 664.204 239.76C664.39 239.8 664.484 239.92 664.484 240.12V241H662.004C661.764 241 661.604 240.873 661.524 240.62L661.364 239.4C660.417 240.547 659.284 241.12 657.964 241.12C656.777 241.12 655.844 240.68 655.164 239.8C654.47 238.88 654.124 237.6 654.124 235.96C654.124 234.427 654.517 233.173 655.304 232.2C656.117 231.187 657.19 230.68 658.524 230.68ZM658.564 239.7C659.617 239.7 660.524 239.187 661.284 238.16V233.28C660.684 232.48 659.904 232.08 658.944 232.08C657.97 232.08 657.23 232.413 656.724 233.08C656.217 233.747 655.964 234.707 655.964 235.96C655.964 237.867 656.457 239.04 657.444 239.48C657.75 239.613 658.117 239.68 658.544 239.68L658.564 239.7ZM674.413 239.72C674.506 239.733 674.579 239.78 674.633 239.86C674.686 239.927 674.713 240.007 674.713 240.1V240.96H672.633C672.513 240.96 672.373 240.933 672.213 240.88C672.119 240.853 672.053 240.747 672.013 240.56L671.813 239.6L671.013 240.26C670.786 240.447 670.519 240.607 670.213 240.74C669.919 240.873 669.626 240.973 669.333 241.04C669.066 241.107 668.706 241.14 668.253 241.14C667.879 241.14 667.519 241.08 667.173 240.96C666.759 240.813 666.459 240.653 666.273 240.48C666.033 240.267 665.833 239.987 665.673 239.64C665.526 239.333 665.453 238.933 665.453 238.44C665.453 238.013 665.559 237.627 665.773 237.28C666.013 236.893 666.373 236.56 666.853 236.28C667.386 235.973 668.026 235.733 668.773 235.56C669.546 235.387 670.519 235.3 671.693 235.3V234.52C671.693 233.733 671.519 233.133 671.173 232.72C670.826 232.307 670.326 232.1 669.673 232.1C669.246 232.1 668.879 232.16 668.573 232.28C668.226 232.413 667.973 232.533 667.813 232.64C667.733 232.693 667.639 232.753 667.533 232.82C667.439 232.873 667.339 232.933 667.233 233C667.086 233.107 666.933 233.16 666.773 233.16C666.626 233.16 666.519 233.133 666.453 233.08C666.373 233.013 666.306 232.933 666.253 232.84L665.933 232.28C666.453 231.773 667.053 231.373 667.733 231.08C668.346 230.813 669.066 230.68 669.893 230.68C670.493 230.68 670.999 230.773 671.413 230.96C671.866 231.16 672.233 231.413 672.513 231.72C672.806 232.027 673.033 232.427 673.193 232.92C673.339 233.36 673.413 233.88 673.413 234.48V239.54C674.053 239.673 674.386 239.747 674.413 239.76V239.72ZM671.653 236.44C670.786 236.44 670.093 236.487 669.573 236.58C669.066 236.673 668.599 236.813 668.173 237C667.799 237.173 667.533 237.373 667.373 237.6C667.213 237.84 667.133 238.093 667.133 238.36C667.133 238.573 667.179 238.8 667.273 239.04C667.353 239.24 667.473 239.4 667.633 239.52C667.793 239.64 667.966 239.727 668.153 239.78C668.379 239.847 668.599 239.88 668.813 239.88C669.079 239.88 669.359 239.847 669.653 239.78C669.919 239.713 670.166 239.627 670.393 239.52C670.593 239.427 670.813 239.28 671.053 239.08C671.186 238.973 671.386 238.787 671.653 238.52V236.44ZM678.961 241.16C678.188 241.16 677.574 240.933 677.121 240.48C676.694 240.053 676.481 239.413 676.481 238.56V232.36H675.261C675.141 232.36 675.048 232.333 674.981 232.28C674.914 232.227 674.881 232.127 674.881 231.98V231.28L676.541 231.06L676.941 227.92C676.941 227.813 676.981 227.733 677.061 227.68C677.128 227.627 677.221 227.6 677.341 227.6H678.241V231.08H681.141V232.38H678.241V238.46C678.241 238.9 678.341 239.22 678.541 239.42C678.741 239.62 679.014 239.72 679.361 239.72C679.508 239.72 679.674 239.693 679.861 239.64C679.981 239.6 680.101 239.547 680.221 239.48C680.261 239.453 680.301 239.427 680.341 239.4C680.381 239.373 680.421 239.347 680.461 239.32C680.568 239.267 680.634 239.24 680.661 239.24C680.754 239.24 680.834 239.293 680.901 239.4L681.421 240.24C681.061 240.547 680.688 240.773 680.301 240.92C679.861 241.08 679.414 241.16 678.961 241.16ZM687.027 230.72C687.613 230.72 688.167 230.82 688.687 231.02C689.22 231.22 689.66 231.507 690.007 231.88C690.407 232.307 690.7 232.78 690.887 233.3C691.1 233.9 691.207 234.54 691.207 235.22C691.207 235.527 691.18 235.713 691.127 235.78C691.06 235.873 690.94 235.92 690.767 235.92H684.047C684.047 236.56 684.127 237.12 684.287 237.6C684.42 238.013 684.647 238.4 684.967 238.76C685.26 239.093 685.593 239.333 685.967 239.48C686.367 239.64 686.793 239.72 687.247 239.72C687.727 239.72 688.113 239.673 688.407 239.58C688.687 239.487 688.967 239.373 689.247 239.24C689.54 239.093 689.74 238.987 689.847 238.92C690.02 238.813 690.153 238.76 690.247 238.76C690.393 238.76 690.507 238.82 690.587 238.94L691.087 239.6C690.9 239.84 690.633 240.067 690.287 240.28C689.887 240.533 689.56 240.7 689.307 240.78C688.907 240.913 688.547 241.007 688.227 241.06C687.827 241.127 687.46 241.16 687.127 241.16C686.433 241.16 685.787 241.04 685.187 240.8C684.613 240.573 684.1 240.22 683.647 239.74C683.22 239.3 682.887 238.733 682.647 238.04C682.407 237.36 682.287 236.587 682.287 235.72C682.287 235.027 682.4 234.373 682.627 233.76C682.853 233.133 683.167 232.6 683.567 232.16C683.98 231.707 684.48 231.353 685.067 231.1C685.653 230.847 686.307 230.72 687.027 230.72ZM687.067 232.02C686.2 232.02 685.527 232.267 685.047 232.76C684.553 233.28 684.247 233.973 684.127 234.84H689.627C689.627 234.427 689.567 234.053 689.447 233.72C689.3 233.307 689.14 233.007 688.967 232.82C688.74 232.58 688.467 232.387 688.147 232.24C687.84 232.107 687.473 232.04 687.047 232.04L687.067 232.02ZM696.35 230.72C697.044 230.72 697.924 230.9 698.99 231.26V233.86H698.21C698.024 233.86 697.91 233.767 697.87 233.58L697.75 232.26C697.124 232.113 696.604 232.04 696.19 232.04H696.17C695.624 232.04 695.164 232.187 694.79 232.48C694.43 232.76 694.25 233.067 694.25 233.4C694.25 233.747 694.33 234 694.49 234.16C694.757 234.467 695.144 234.7 695.65 234.86L696.25 235.04C696.357 235.067 696.57 235.133 696.89 235.24L697.85 235.6C698.117 235.693 698.397 235.867 698.69 236.12C699.237 236.547 699.51 237.133 699.51 237.88C699.51 238.853 699.184 239.627 698.53 240.2C697.824 240.827 696.93 241.14 695.85 241.14C694.744 241.14 693.65 240.96 692.57 240.6V237.96H693.29C693.45 237.96 693.55 238.04 693.59 238.2L693.71 239.48C694.244 239.747 694.93 239.88 695.77 239.88C696.41 239.88 696.93 239.713 697.33 239.38C697.677 239.073 697.85 238.733 697.85 238.36C697.85 237.973 697.77 237.693 697.61 237.52C697.424 237.307 697.224 237.147 697.01 237.04C696.717 236.893 696.437 236.787 696.17 236.72C695.184 236.4 694.564 236.187 694.31 236.08C693.99 235.933 693.69 235.747 693.41 235.52C692.85 235.053 692.57 234.427 692.57 233.64C692.57 232.84 692.89 232.16 693.53 231.6C694.197 231.013 695.137 230.72 696.35 230.72Z" fill="#0D606F"/>
<rect x="539" y="93" width="100" height="100" rx="16" fill="#F2785C"/>
<path d="M576.722 145.889C577.68 145.889 578.598 145.508 579.276 144.831C579.953 144.154 580.333 143.236 580.333 142.278C580.333 141.32 579.953 140.402 579.276 139.724C578.598 139.047 577.68 138.667 576.722 138.667C575.764 138.667 574.846 139.047 574.169 139.724C573.492 140.402 573.111 141.32 573.111 142.278C573.111 143.236 573.492 144.154 574.169 144.831C574.846 145.508 575.764 145.889 576.722 145.889ZM592.611 142.278C592.611 143.236 592.231 144.154 591.553 144.831C590.876 145.508 589.958 145.889 589 145.889C588.042 145.889 587.124 145.508 586.447 144.831C585.769 144.154 585.389 143.236 585.389 142.278C585.389 141.32 585.769 140.402 586.447 139.724C587.124 139.047 588.042 138.667 589 138.667C589.958 138.667 590.876 139.047 591.553 139.724C592.231 140.402 592.611 141.32 592.611 142.278ZM601.278 145.889C602.236 145.889 603.154 145.508 603.831 144.831C604.508 144.154 604.889 143.236 604.889 142.278C604.889 141.32 604.508 140.402 603.831 139.724C603.154 139.047 602.236 138.667 601.278 138.667C600.32 138.667 599.402 139.047 598.724 139.724C598.047 140.402 597.667 141.32 597.667 142.278C597.667 143.236 598.047 144.154 598.724 144.831C599.402 145.508 600.32 145.889 601.278 145.889ZM580.333 153.833C580.333 154.791 579.953 155.71 579.276 156.387C578.598 157.064 577.68 157.444 576.722 157.444C575.764 157.444 574.846 157.064 574.169 156.387C573.492 155.71 573.111 154.791 573.111 153.833C573.111 152.876 573.492 151.957 574.169 151.28C574.846 150.603 575.764 150.222 576.722 150.222C577.68 150.222 578.598 150.603 579.276 151.28C579.953 151.957 580.333 152.876 580.333 153.833ZM589 157.444C589.958 157.444 590.876 157.064 591.553 156.387C592.231 155.71 592.611 154.791 592.611 153.833C592.611 152.876 592.231 151.957 591.553 151.28C590.876 150.603 589.958 150.222 589 150.222C588.042 150.222 587.124 150.603 586.447 151.28C585.769 151.957 585.389 152.876 585.389 153.833C585.389 154.791 585.769 155.71 586.447 156.387C587.124 157.064 588.042 157.444 589 157.444ZM563 126.028C563 123.633 563.951 121.337 565.644 119.644C567.337 117.951 569.633 117 572.028 117H605.972C608.367 117 610.663 117.951 612.356 119.644C614.049 121.337 615 123.633 615 126.028V159.972C615 162.367 614.049 164.663 612.356 166.356C610.663 168.049 608.367 169 605.972 169H572.028C569.633 169 567.337 168.049 565.644 166.356C563.951 164.663 563 162.367 563 159.972V126.028ZM572.028 120.611C570.591 120.611 569.213 121.182 568.198 122.198C567.182 123.213 566.611 124.591 566.611 126.028V128.556H611.389V126.028C611.389 124.591 610.818 123.213 609.802 122.198C608.787 121.182 607.409 120.611 605.972 120.611H572.028ZM566.611 159.972C566.611 161.409 567.182 162.787 568.198 163.802C569.213 164.818 570.591 165.389 572.028 165.389H605.972C607.409 165.389 608.787 164.818 609.802 163.802C610.818 162.787 611.389 161.409 611.389 159.972V132.167H566.611V159.972Z" fill="white"/>
<path d="M12.24 229.84H11.26C11.0467 229.84 10.92 229.773 10.88 229.64C10.8133 229.413 10.7467 228.973 10.68 228.32H7.32V239.56L7.56 239.6C8.17333 239.72 8.50667 239.787 8.56 239.8C8.69333 239.84 8.76 239.96 8.76 240.16V241H3.92V240.16C3.92 240.053 3.94667 239.967 4 239.9C4.06667 239.82 4.15333 239.773 4.26 239.76L5.36 239.54V228.3H1.98C1.9 229.047 1.84 229.493 1.8 229.64C1.76 229.773 1.62667 229.84 1.4 229.84H0.44V226.68H12.24V229.84ZM15.6087 230.72C16.1954 230.72 16.7488 230.82 17.2688 231.02C17.8021 231.22 18.2421 231.507 18.5888 231.88C18.9888 232.307 19.2821 232.78 19.4688 233.3C19.6821 233.9 19.7888 234.54 19.7888 235.22C19.7888 235.527 19.7621 235.713 19.7088 235.78C19.6421 235.873 19.5221 235.92 19.3488 235.92H12.6288C12.6288 236.56 12.7088 237.12 12.8688 237.6C13.0021 238.013 13.2288 238.4 13.5488 238.76C13.8421 239.093 14.1754 239.333 14.5488 239.48C14.9488 239.64 15.3754 239.72 15.8288 239.72C16.3088 239.72 16.6954 239.673 16.9888 239.58C17.2688 239.487 17.5488 239.373 17.8288 239.24C18.1221 239.093 18.3221 238.987 18.4288 238.92C18.6021 238.813 18.7354 238.76 18.8288 238.76C18.9754 238.76 19.0888 238.82 19.1688 238.94L19.6688 239.6C19.4821 239.84 19.2154 240.067 18.8688 240.28C18.4688 240.533 18.1421 240.7 17.8888 240.78C17.4888 240.913 17.1288 241.007 16.8088 241.06C16.4088 241.127 16.0421 241.16 15.7088 241.16C15.0154 241.16 14.3688 241.04 13.7688 240.8C13.1954 240.573 12.6821 240.22 12.2288 239.74C11.8021 239.3 11.4688 238.733 11.2288 238.04C10.9888 237.36 10.8688 236.587 10.8688 235.72C10.8688 235.027 10.9821 234.373 11.2088 233.76C11.4354 233.133 11.7488 232.6 12.1488 232.16C12.5621 231.707 13.0621 231.353 13.6488 231.1C14.2354 230.847 14.8888 230.72 15.6087 230.72ZM15.6488 232.02C14.7821 232.02 14.1088 232.267 13.6288 232.76C13.1354 233.28 12.8288 233.973 12.7088 234.84H18.2088C18.2088 234.427 18.1488 234.053 18.0288 233.72C17.8821 233.307 17.7221 233.007 17.5488 232.82C17.3221 232.58 17.0488 232.387 16.7288 232.24C16.4221 232.107 16.0554 232.04 15.6288 232.04L15.6488 232.02ZM25.3125 239.76C25.5258 239.8 25.6325 239.927 25.6325 240.14V241H20.9525V240.14C20.9525 239.927 21.0592 239.8 21.2725 239.76L22.3925 239.54V227.72C21.7792 227.6 21.4058 227.52 21.2725 227.48C21.0592 227.44 20.9525 227.32 20.9525 227.12V226.26H24.1925V239.52C24.8058 239.64 25.1792 239.72 25.3125 239.76ZM31.1133 239.76C31.3266 239.8 31.4333 239.927 31.4333 240.14V241H26.7533V240.14C26.7533 239.927 26.8599 239.8 27.0733 239.76L28.1933 239.54V227.72C27.5799 227.6 27.2066 227.52 27.0733 227.48C26.8599 227.44 26.7533 227.32 26.7533 227.12V226.26H29.9933V239.52C30.6066 239.64 30.9799 239.72 31.1133 239.76ZM41.8509 239.76C42.8509 239.76 43.7643 239.293 44.5909 238.36V232.36C44.4709 232.32 44.0909 232.24 43.4509 232.12C43.2509 232.08 43.1509 231.953 43.1509 231.74V230.88H46.3709V239.56C47.0109 239.68 47.3909 239.76 47.5109 239.8C47.7109 239.84 47.8109 239.96 47.8109 240.16V241.02H45.3109C45.0709 241.02 44.9109 240.893 44.8309 240.64L44.6909 239.56C43.7309 240.64 42.6109 241.18 41.3309 241.18C40.2509 241.18 39.4109 240.827 38.8109 240.12C38.2243 239.413 37.9309 238.487 37.9309 237.34V232.34C37.3176 232.22 36.9443 232.14 36.8109 232.1C36.5976 232.06 36.4909 231.933 36.4909 231.72V230.88H39.7309V237.32C39.7309 238.12 39.9043 238.72 40.2509 239.12C40.6109 239.533 41.1443 239.74 41.8509 239.74V239.76ZM52.9598 230.72C53.6532 230.72 54.5332 230.9 55.5998 231.26V233.86H54.8198C54.6332 233.86 54.5198 233.767 54.4798 233.58L54.3598 232.26C53.7332 232.113 53.2132 232.04 52.7998 232.04H52.7798C52.2332 232.04 51.7732 232.187 51.3998 232.48C51.0398 232.76 50.8598 233.067 50.8598 233.4C50.8598 233.747 50.9398 234 51.0998 234.16C51.3665 234.467 51.7532 234.7 52.2598 234.86L52.8598 235.04C52.9665 235.067 53.1798 235.133 53.4998 235.24L54.4598 235.6C54.7265 235.693 55.0065 235.867 55.2998 236.12C55.8465 236.547 56.1198 237.133 56.1198 237.88C56.1198 238.853 55.7932 239.627 55.1398 240.2C54.4332 240.827 53.5398 241.14 52.4598 241.14C51.3532 241.14 50.2598 240.96 49.1798 240.6V237.96H49.8998C50.0598 237.96 50.1598 238.04 50.1998 238.2L50.3198 239.48C50.8532 239.747 51.5398 239.88 52.3798 239.88C53.0198 239.88 53.5398 239.713 53.9398 239.38C54.2865 239.073 54.4598 238.733 54.4598 238.36C54.4598 237.973 54.3798 237.693 54.2198 237.52C54.0332 237.307 53.8332 237.147 53.6198 237.04C53.3265 236.893 53.0465 236.787 52.7798 236.72C51.7932 236.4 51.1732 236.187 50.9198 236.08C50.5998 235.933 50.2998 235.747 50.0198 235.52C49.4598 235.053 49.1798 234.427 49.1798 233.64C49.1798 232.84 49.4998 232.16 50.1398 231.6C50.8065 231.013 51.7465 230.72 52.9598 230.72ZM77.8398 231.76C77.8398 231.96 77.7398 232.08 77.5398 232.12C77.4998 232.12 77.4398 232.133 77.3598 232.16C77.2798 232.173 77.1732 232.193 77.0398 232.22C76.8932 232.247 76.7798 232.273 76.6998 232.3C76.6332 232.313 76.5798 232.32 76.5398 232.32L73.7198 241H72.3198C72.1332 241 72.0132 240.893 71.9598 240.68L69.7198 233.8C69.6798 233.693 69.6332 233.533 69.5798 233.32C69.5665 233.253 69.5532 233.187 69.5398 233.12C69.5265 233.04 69.5065 232.96 69.4798 232.88C69.4665 232.96 69.4532 233.04 69.4398 233.12C69.4265 233.2 69.4132 233.28 69.3998 233.36L69.2798 233.8L66.9998 240.66C66.9198 240.887 66.7865 241 66.5998 241H65.2398L62.4398 232.3C62.3732 232.3 62.2598 232.28 62.0998 232.24C61.9265 232.2 61.7865 232.167 61.6798 232.14C61.5732 232.113 61.4932 232.1 61.4398 232.1C61.2265 232.06 61.1198 231.933 61.1198 231.72V230.88H65.6398V231.72C65.6398 231.933 65.5398 232.06 65.3398 232.1C65.1798 232.14 65.0132 232.173 64.8398 232.2L64.2398 232.32L65.8398 237.76C65.8665 237.893 65.8932 238.013 65.9198 238.12C65.9465 238.227 65.9665 238.32 65.9798 238.4C66.0732 238.84 66.1198 239.087 66.1198 239.14C66.1598 238.927 66.2932 238.467 66.5198 237.76L68.6398 231.2C68.7198 230.96 68.8798 230.84 69.1198 230.84H69.8998C70.1532 230.84 70.3198 230.96 70.3998 231.2L72.4998 237.76L72.8598 239.12C72.9398 238.64 73.0398 238.187 73.1598 237.76L74.7998 232.32C74.7332 232.32 74.3465 232.247 73.6398 232.1C73.4265 232.06 73.3198 231.933 73.3198 231.72V230.88L77.8398 230.9V231.76ZM82.1427 232.24C83.116 231.227 84.196 230.72 85.3827 230.72C86.4627 230.72 87.3027 231.067 87.9027 231.76C88.4893 232.453 88.7827 233.387 88.7827 234.56V239.54C89.4227 239.66 89.8027 239.74 89.9227 239.78C90.1227 239.82 90.2227 239.947 90.2227 240.16V241H87.0027V234.56C87.0027 232.947 86.2893 232.14 84.8627 232.14C83.8893 232.14 82.9827 232.613 82.1427 233.56V239.56L82.3827 239.6L83.2627 239.78C83.476 239.82 83.5827 239.947 83.5827 240.16V241H78.9027V240.16C78.9027 239.947 79.0093 239.82 79.2227 239.78L80.3427 239.56V227.74C79.5827 227.62 79.1427 227.54 79.0227 227.5C78.8093 227.46 78.7027 227.333 78.7027 227.12V226.28H82.1427V232.24ZM100.163 239.72C100.256 239.733 100.329 239.78 100.383 239.86C100.436 239.927 100.463 240.007 100.463 240.1V240.96H98.3827C98.2627 240.96 98.1227 240.933 97.9627 240.88C97.8693 240.853 97.8027 240.747 97.7627 240.56L97.5627 239.6L96.7627 240.26C96.536 240.447 96.2693 240.607 95.9627 240.74C95.6693 240.873 95.376 240.973 95.0827 241.04C94.816 241.107 94.456 241.14 94.0027 241.14C93.6293 241.14 93.2693 241.08 92.9227 240.96C92.5093 240.813 92.2093 240.653 92.0227 240.48C91.7827 240.267 91.5827 239.987 91.4227 239.64C91.276 239.333 91.2027 238.933 91.2027 238.44C91.2027 238.013 91.3093 237.627 91.5227 237.28C91.7627 236.893 92.1227 236.56 92.6027 236.28C93.136 235.973 93.776 235.733 94.5227 235.56C95.296 235.387 96.2693 235.3 97.4427 235.3V234.52C97.4427 233.733 97.2693 233.133 96.9227 232.72C96.576 232.307 96.076 232.1 95.4227 232.1C94.996 232.1 94.6293 232.16 94.3227 232.28C93.976 232.413 93.7227 232.533 93.5627 232.64C93.4827 232.693 93.3893 232.753 93.2827 232.82C93.1893 232.873 93.0893 232.933 92.9827 233C92.836 233.107 92.6827 233.16 92.5227 233.16C92.376 233.16 92.2693 233.133 92.2027 233.08C92.1227 233.013 92.056 232.933 92.0027 232.84L91.6827 232.28C92.2027 231.773 92.8027 231.373 93.4827 231.08C94.096 230.813 94.816 230.68 95.6427 230.68C96.2427 230.68 96.7493 230.773 97.1627 230.96C97.616 231.16 97.9827 231.413 98.2627 231.72C98.556 232.027 98.7827 232.427 98.9427 232.92C99.0893 233.36 99.1627 233.88 99.1627 234.48V239.54C99.8027 239.673 100.136 239.747 100.163 239.76V239.72ZM97.4027 236.44C96.536 236.44 95.8427 236.487 95.3227 236.58C94.816 236.673 94.3493 236.813 93.9227 237C93.5493 237.173 93.2827 237.373 93.1227 237.6C92.9627 237.84 92.8827 238.093 92.8827 238.36C92.8827 238.573 92.9293 238.8 93.0227 239.04C93.1027 239.24 93.2227 239.4 93.3827 239.52C93.5427 239.64 93.716 239.727 93.9027 239.78C94.1293 239.847 94.3493 239.88 94.5627 239.88C94.8293 239.88 95.1093 239.847 95.4027 239.78C95.6693 239.713 95.916 239.627 96.1427 239.52C96.3427 239.427 96.5627 239.28 96.8027 239.08C96.936 238.973 97.136 238.787 97.4027 238.52V236.44ZM104.711 241.16C103.938 241.16 103.324 240.933 102.871 240.48C102.444 240.053 102.231 239.413 102.231 238.56V232.36H101.011C100.891 232.36 100.798 232.333 100.731 232.28C100.664 232.227 100.631 232.127 100.631 231.98V231.28L102.291 231.06L102.691 227.92C102.691 227.813 102.731 227.733 102.811 227.68C102.878 227.627 102.971 227.6 103.091 227.6H103.991V231.08H106.891V232.38H103.991V238.46C103.991 238.9 104.091 239.22 104.291 239.42C104.491 239.62 104.764 239.72 105.111 239.72C105.258 239.72 105.424 239.693 105.611 239.64C105.731 239.6 105.851 239.547 105.971 239.48C106.011 239.453 106.051 239.427 106.091 239.4C106.131 239.373 106.171 239.347 106.211 239.32C106.318 239.267 106.384 239.24 106.411 239.24C106.504 239.24 106.584 239.293 106.651 239.4L107.171 240.24C106.811 240.547 106.438 240.773 106.051 240.92C105.611 241.08 105.164 241.16 104.711 241.16ZM123.454 231.72C123.454 231.92 123.354 232.04 123.154 232.08C123.1 232.08 123.02 232.093 122.914 232.12C122.82 232.147 122.72 232.173 122.614 232.2L122.114 232.3L117.094 243.98C117.04 244.113 116.954 244.22 116.834 244.3C116.727 244.38 116.6 244.42 116.454 244.42H115.134L116.974 240.4L113.414 232.28C113.014 232.213 112.714 232.147 112.514 232.08C112.314 232.04 112.214 231.92 112.214 231.72V230.86H116.754V231.72C116.754 231.92 116.654 232.04 116.454 232.08C116.32 232.12 115.947 232.2 115.334 232.32L117.594 237.6C117.66 237.747 117.714 237.92 117.754 238.12C117.807 238.32 117.84 238.453 117.854 238.52C117.947 238.2 118.054 237.893 118.174 237.6L120.354 232.32C120.354 232.32 119.987 232.247 119.254 232.1C119.067 232.06 118.974 231.933 118.974 231.72V230.88H122.734L123.454 230.86V231.72ZM128.874 230.72C129.607 230.72 130.274 230.84 130.874 231.08C131.46 231.32 131.974 231.667 132.414 232.12C132.827 232.547 133.147 233.093 133.374 233.76C133.6 234.413 133.714 235.133 133.714 235.92C133.714 236.707 133.6 237.427 133.374 238.08C133.147 238.747 132.827 239.293 132.414 239.72C131.974 240.173 131.46 240.52 130.874 240.76C130.274 241 129.607 241.12 128.874 241.12C128.14 241.12 127.474 241 126.874 240.76C126.287 240.52 125.774 240.173 125.334 239.72C124.934 239.307 124.607 238.76 124.354 238.08C124.14 237.507 124.034 236.787 124.034 235.92C124.034 235.053 124.14 234.333 124.354 233.76C124.607 233.08 124.934 232.533 125.334 232.12C125.774 231.667 126.287 231.32 126.874 231.08C127.474 230.84 128.14 230.72 128.874 230.72ZM128.874 239.76C129.9 239.76 130.647 239.427 131.114 238.76C131.607 238.067 131.854 237.127 131.854 235.94C131.854 234.753 131.607 233.813 131.114 233.12C130.647 232.453 129.9 232.12 128.874 232.12C128.354 232.12 127.914 232.2 127.554 232.36C127.207 232.52 126.9 232.773 126.634 233.12C126.38 233.467 126.194 233.867 126.074 234.32C125.94 234.853 125.874 235.4 125.874 235.96C125.874 236.493 125.94 237.027 126.074 237.56C126.194 238.013 126.38 238.413 126.634 238.76C126.86 239.067 127.167 239.307 127.554 239.48C127.98 239.667 128.42 239.76 128.874 239.76ZM139.8 239.76C140.8 239.76 141.713 239.293 142.54 238.36V232.36C142.42 232.32 142.04 232.24 141.4 232.12C141.2 232.08 141.1 231.953 141.1 231.74V230.88H144.32V239.56C144.96 239.68 145.34 239.76 145.46 239.8C145.66 239.84 145.76 239.96 145.76 240.16V241.02H143.26C143.02 241.02 142.86 240.893 142.78 240.64L142.64 239.56C141.68 240.64 140.56 241.18 139.28 241.18C138.2 241.18 137.36 240.827 136.76 240.12C136.173 239.413 135.88 238.487 135.88 237.34V232.34C135.267 232.22 134.893 232.14 134.76 232.1C134.547 232.06 134.44 231.933 134.44 231.72V230.88H137.68V237.32C137.68 238.12 137.853 238.72 138.2 239.12C138.56 239.533 139.093 239.74 139.8 239.74V239.76ZM167.586 231.76C167.586 231.96 167.486 232.08 167.286 232.12C167.246 232.12 167.186 232.133 167.106 232.16C167.026 232.173 166.919 232.193 166.786 232.22C166.639 232.247 166.526 232.273 166.446 232.3C166.379 232.313 166.326 232.32 166.286 232.32L163.466 241H162.066C161.879 241 161.759 240.893 161.706 240.68L159.466 233.8C159.426 233.693 159.379 233.533 159.326 233.32C159.313 233.253 159.299 233.187 159.286 233.12C159.273 233.04 159.253 232.96 159.226 232.88C159.213 232.96 159.199 233.04 159.186 233.12C159.173 233.2 159.159 233.28 159.146 233.36L159.026 233.8L156.746 240.66C156.666 240.887 156.533 241 156.346 241H154.986L152.186 232.3C152.119 232.3 152.006 232.28 151.846 232.24C151.673 232.2 151.533 232.167 151.426 232.14C151.319 232.113 151.239 232.1 151.186 232.1C150.973 232.06 150.866 231.933 150.866 231.72V230.88H155.386V231.72C155.386 231.933 155.286 232.06 155.086 232.1C154.926 232.14 154.759 232.173 154.586 232.2L153.986 232.32L155.586 237.76C155.613 237.893 155.639 238.013 155.666 238.12C155.693 238.227 155.713 238.32 155.726 238.4C155.819 238.84 155.866 239.087 155.866 239.14C155.906 238.927 156.039 238.467 156.266 237.76L158.386 231.2C158.466 230.96 158.626 230.84 158.866 230.84H159.646C159.899 230.84 160.066 230.96 160.146 231.2L162.246 237.76L162.606 239.12C162.686 238.64 162.786 238.187 162.906 237.76L164.546 232.32C164.479 232.32 164.093 232.247 163.386 232.1C163.173 232.06 163.066 231.933 163.066 231.72V230.88L167.586 230.9V231.76ZM177.409 239.72C177.502 239.733 177.575 239.78 177.629 239.86C177.682 239.927 177.709 240.007 177.709 240.1V240.96H175.629C175.509 240.96 175.369 240.933 175.209 240.88C175.115 240.853 175.049 240.747 175.009 240.56L174.809 239.6L174.009 240.26C173.782 240.447 173.515 240.607 173.209 240.74C172.915 240.873 172.622 240.973 172.329 241.04C172.062 241.107 171.702 241.14 171.249 241.14C170.875 241.14 170.515 241.08 170.169 240.96C169.755 240.813 169.455 240.653 169.269 240.48C169.029 240.267 168.829 239.987 168.669 239.64C168.522 239.333 168.449 238.933 168.449 238.44C168.449 238.013 168.555 237.627 168.769 237.28C169.009 236.893 169.369 236.56 169.849 236.28C170.382 235.973 171.022 235.733 171.769 235.56C172.542 235.387 173.515 235.3 174.689 235.3V234.52C174.689 233.733 174.515 233.133 174.169 232.72C173.822 232.307 173.322 232.1 172.669 232.1C172.242 232.1 171.875 232.16 171.569 232.28C171.222 232.413 170.969 232.533 170.809 232.64C170.729 232.693 170.635 232.753 170.529 232.82C170.435 232.873 170.335 232.933 170.229 233C170.082 233.107 169.929 233.16 169.769 233.16C169.622 233.16 169.515 233.133 169.449 233.08C169.369 233.013 169.302 232.933 169.249 232.84L168.929 232.28C169.449 231.773 170.049 231.373 170.729 231.08C171.342 230.813 172.062 230.68 172.889 230.68C173.489 230.68 173.995 230.773 174.409 230.96C174.862 231.16 175.229 231.413 175.509 231.72C175.802 232.027 176.029 232.427 176.189 232.92C176.335 233.36 176.409 233.88 176.409 234.48V239.54C177.049 239.673 177.382 239.747 177.409 239.76V239.72ZM174.649 236.44C173.782 236.44 173.089 236.487 172.569 236.58C172.062 236.673 171.595 236.813 171.169 237C170.795 237.173 170.529 237.373 170.369 237.6C170.209 237.84 170.129 238.093 170.129 238.36C170.129 238.573 170.175 238.8 170.269 239.04C170.349 239.24 170.469 239.4 170.629 239.52C170.789 239.64 170.962 239.727 171.149 239.78C171.375 239.847 171.595 239.88 171.809 239.88C172.075 239.88 172.355 239.847 172.649 239.78C172.915 239.713 173.162 239.627 173.389 239.52C173.589 239.427 173.809 239.28 174.049 239.08C174.182 238.973 174.382 238.787 174.649 238.52V236.44ZM182.023 232.32C183.023 231.24 184.143 230.7 185.383 230.7C186.476 230.7 187.316 231.053 187.903 231.76C188.476 232.453 188.763 233.38 188.763 234.54V239.52C189.403 239.64 189.783 239.72 189.903 239.76C190.116 239.8 190.223 239.927 190.223 240.14V241H186.983V234.56C186.983 232.933 186.276 232.12 184.863 232.12C183.863 232.12 182.943 232.593 182.103 233.54V239.54C182.156 239.54 182.543 239.62 183.263 239.78C183.463 239.82 183.563 239.947 183.563 240.16V241H178.903V240.16C178.903 239.947 178.996 239.82 179.183 239.78L180.343 239.56V232.34C179.676 232.22 179.289 232.14 179.183 232.1C178.996 232.06 178.903 231.933 178.903 231.72V230.88H181.383C181.623 230.88 181.783 231 181.863 231.24L182.023 232.34V232.32ZM195.063 241.16C194.289 241.16 193.676 240.933 193.223 240.48C192.796 240.053 192.583 239.413 192.583 238.56V232.36H191.363C191.243 232.36 191.149 232.333 191.083 232.28C191.016 232.227 190.983 232.127 190.983 231.98V231.28L192.643 231.06L193.043 227.92C193.043 227.813 193.083 227.733 193.163 227.68C193.229 227.627 193.323 227.6 193.443 227.6H194.343V231.08H197.243V232.38H194.343V238.46C194.343 238.9 194.443 239.22 194.643 239.42C194.843 239.62 195.116 239.72 195.463 239.72C195.609 239.72 195.776 239.693 195.963 239.64C196.083 239.6 196.203 239.547 196.323 239.48C196.363 239.453 196.403 239.427 196.443 239.4C196.483 239.373 196.523 239.347 196.563 239.32C196.669 239.267 196.736 239.24 196.763 239.24C196.856 239.24 196.936 239.293 197.003 239.4L197.523 240.24C197.163 240.547 196.789 240.773 196.403 240.92C195.963 241.08 195.516 241.16 195.063 241.16ZM206.625 241.16C205.852 241.16 205.238 240.933 204.785 240.48C204.358 240.053 204.145 239.413 204.145 238.56V232.36H202.925C202.805 232.36 202.712 232.333 202.645 232.28C202.578 232.227 202.545 232.127 202.545 231.98V231.28L204.205 231.06L204.605 227.92C204.605 227.813 204.645 227.733 204.725 227.68C204.792 227.627 204.885 227.6 205.005 227.6H205.905V231.08H208.805V232.38H205.905V238.46C205.905 238.9 206.005 239.22 206.205 239.42C206.405 239.62 206.678 239.72 207.025 239.72C207.172 239.72 207.338 239.693 207.525 239.64C207.645 239.6 207.765 239.547 207.885 239.48C207.925 239.453 207.965 239.427 208.005 239.4C208.045 239.373 208.085 239.347 208.125 239.32C208.232 239.267 208.298 239.24 208.325 239.24C208.418 239.24 208.498 239.293 208.565 239.4L209.085 240.24C208.725 240.547 208.352 240.773 207.965 240.92C207.525 241.08 207.078 241.16 206.625 241.16ZM214.831 230.72C215.564 230.72 216.231 230.84 216.831 231.08C217.417 231.32 217.931 231.667 218.371 232.12C218.784 232.547 219.104 233.093 219.331 233.76C219.557 234.413 219.671 235.133 219.671 235.92C219.671 236.707 219.557 237.427 219.331 238.08C219.104 238.747 218.784 239.293 218.371 239.72C217.931 240.173 217.417 240.52 216.831 240.76C216.231 241 215.564 241.12 214.831 241.12C214.097 241.12 213.431 241 212.831 240.76C212.244 240.52 211.731 240.173 211.291 239.72C210.891 239.307 210.564 238.76 210.311 238.08C210.097 237.507 209.991 236.787 209.991 235.92C209.991 235.053 210.097 234.333 210.311 233.76C210.564 233.08 210.891 232.533 211.291 232.12C211.731 231.667 212.244 231.32 212.831 231.08C213.431 230.84 214.097 230.72 214.831 230.72ZM214.831 239.76C215.857 239.76 216.604 239.427 217.071 238.76C217.564 238.067 217.811 237.127 217.811 235.94C217.811 234.753 217.564 233.813 217.071 233.12C216.604 232.453 215.857 232.12 214.831 232.12C214.311 232.12 213.871 232.2 213.511 232.36C213.164 232.52 212.857 232.773 212.591 233.12C212.337 233.467 212.151 233.867 212.031 234.32C211.897 234.853 211.831 235.4 211.831 235.96C211.831 236.493 211.897 237.027 212.031 237.56C212.151 238.013 212.337 238.413 212.591 238.76C212.817 239.067 213.124 239.307 213.511 239.48C213.937 239.667 214.377 239.76 214.831 239.76ZM229.254 230.68C230.374 230.68 231.294 231.08 232.014 231.88V227.72L230.674 227.48C230.474 227.44 230.374 227.32 230.374 227.12V226.24H233.774V239.52C234.441 239.64 234.827 239.72 234.934 239.76C235.121 239.8 235.214 239.92 235.214 240.12V241H232.734C232.494 241 232.334 240.873 232.254 240.62L232.094 239.4C231.147 240.547 230.014 241.12 228.694 241.12C227.507 241.12 226.574 240.68 225.894 239.8C225.201 238.88 224.854 237.6 224.854 235.96C224.854 234.427 225.247 233.173 226.034 232.2C226.847 231.187 227.921 230.68 229.254 230.68ZM229.294 239.7C230.347 239.7 231.254 239.187 232.014 238.16V233.28C231.414 232.48 230.634 232.08 229.674 232.08C228.701 232.08 227.961 232.413 227.454 233.08C226.947 233.747 226.694 234.707 226.694 235.96C226.694 237.867 227.187 239.04 228.174 239.48C228.481 239.613 228.847 239.68 229.274 239.68L229.294 239.7ZM240.983 230.72C241.716 230.72 242.383 230.84 242.983 231.08C243.57 231.32 244.083 231.667 244.523 232.12C244.936 232.547 245.256 233.093 245.483 233.76C245.71 234.413 245.823 235.133 245.823 235.92C245.823 236.707 245.71 237.427 245.483 238.08C245.256 238.747 244.936 239.293 244.523 239.72C244.083 240.173 243.57 240.52 242.983 240.76C242.383 241 241.716 241.12 240.983 241.12C240.25 241.12 239.583 241 238.983 240.76C238.396 240.52 237.883 240.173 237.443 239.72C237.043 239.307 236.716 238.76 236.463 238.08C236.25 237.507 236.143 236.787 236.143 235.92C236.143 235.053 236.25 234.333 236.463 233.76C236.716 233.08 237.043 232.533 237.443 232.12C237.883 231.667 238.396 231.32 238.983 231.08C239.583 230.84 240.25 230.72 240.983 230.72ZM240.983 239.76C242.01 239.76 242.756 239.427 243.223 238.76C243.716 238.067 243.963 237.127 243.963 235.94C243.963 234.753 243.716 233.813 243.223 233.12C242.756 232.453 242.01 232.12 240.983 232.12C240.463 232.12 240.023 232.2 239.663 232.36C239.316 232.52 239.01 232.773 238.743 233.12C238.49 233.467 238.303 233.867 238.183 234.32C238.05 234.853 237.983 235.4 237.983 235.96C237.983 236.493 238.05 237.027 238.183 237.56C238.303 238.013 238.49 238.413 238.743 238.76C238.97 239.067 239.276 239.307 239.663 239.48C240.09 239.667 240.53 239.76 240.983 239.76Z" fill="#0D606F"/>
<rect x="73" y="93" width="100" height="100" rx="16" fill="#F2785C"/>
<path d="M108.417 162.755C106.483 162.755 104.628 161.957 103.261 160.537C101.893 159.117 101.125 157.191 101.125 155.183C101.125 153.174 101.893 151.248 103.261 149.828C104.628 148.408 106.483 147.611 108.417 147.611C110.351 147.611 112.205 148.408 113.573 149.828C114.94 151.248 115.708 153.174 115.708 155.183C115.708 157.191 114.94 159.117 113.573 160.537C112.205 161.957 110.351 162.755 108.417 162.755ZM108.417 144.365C105.654 144.365 103.004 145.505 101.051 147.534C99.0975 149.562 98 152.314 98 155.183C98 158.052 99.0975 160.803 101.051 162.832C103.004 164.86 105.654 166 108.417 166C111.179 166 113.829 164.86 115.782 162.832C117.736 160.803 118.833 158.052 118.833 155.183C118.833 152.314 117.736 149.562 115.782 147.534C113.829 145.505 111.179 144.365 108.417 144.365ZM128.833 140.038H137.583V136.144H130.917L126.875 129.07C126.271 127.988 125.083 127.274 123.833 127.274C122.854 127.274 121.958 127.685 121.333 128.356L113.625 136.339C112.979 137.01 112.583 137.875 112.583 138.957C112.583 140.32 113.271 141.466 114.354 142.137L121.333 146.529V157.346H125.083V143.284L120.396 139.714L125.229 134.63L128.833 140.038ZM137.583 162.755C135.649 162.755 133.795 161.957 132.427 160.537C131.06 159.117 130.292 157.191 130.292 155.183C130.292 153.174 131.06 151.248 132.427 149.828C133.795 148.408 135.649 147.611 137.583 147.611C139.517 147.611 141.372 148.408 142.739 149.828C144.107 151.248 144.875 153.174 144.875 155.183C144.875 157.191 144.107 159.117 142.739 160.537C141.372 161.957 139.517 162.755 137.583 162.755ZM137.583 144.365C134.821 144.365 132.171 145.505 130.218 147.534C128.264 149.562 127.167 152.314 127.167 155.183C127.167 158.052 128.264 160.803 130.218 162.832C132.171 164.86 134.821 166 137.583 166C138.951 166 140.306 165.72 141.57 165.177C142.833 164.633 143.982 163.836 144.949 162.832C145.916 161.827 146.684 160.635 147.207 159.322C147.731 158.01 148 156.603 148 155.183C148 153.762 147.731 152.356 147.207 151.043C146.684 149.731 145.916 148.538 144.949 147.534C143.982 146.529 142.833 145.732 141.57 145.189C140.306 144.645 138.951 144.365 137.583 144.365ZM131.333 128.788C133.417 128.788 135.083 127.058 135.083 124.894C135.083 122.731 133.417 121 131.333 121C129.25 121 127.583 122.731 127.583 124.894C127.583 127.058 129.25 128.788 131.333 128.788Z" fill="white"/>
<path d="M294.76 41.44C292.68 41.44 290.747 41.08 288.96 40.36C287.173 39.6133 285.653 38.5733 284.4 37.24L287.32 34.44C288.44 35.6133 289.56 36.44 290.68 36.92C291.8 37.3733 293.133 37.6 294.68 37.6C295.907 37.6 296.973 37.4133 297.88 37.04C298.813 36.64 299.533 36.0933 300.04 35.4C300.547 34.7067 300.8 33.8933 300.8 32.96C300.8 32.1333 300.587 31.4 300.16 30.76C299.733 30.12 299.147 29.6267 298.4 29.28C297.653 28.9067 296.787 28.72 295.8 28.72H292.36V25.04H295.44C296.8 25.04 297.88 24.6667 298.68 23.92C299.507 23.1733 299.92 22.16 299.92 20.88C299.92 20.0533 299.68 19.3067 299.2 18.64C298.747 17.9467 298.12 17.4133 297.32 17.04C296.52 16.64 295.613 16.44 294.6 16.44C293.187 16.44 291.947 16.6933 290.88 17.2C289.84 17.68 288.76 18.5333 287.64 19.76L284.68 17C285.96 15.56 287.467 14.4667 289.2 13.72C290.96 12.9467 292.8 12.56 294.72 12.56C296.587 12.56 298.24 12.8933 299.68 13.56C301.12 14.2267 302.24 15.16 303.04 16.36C303.867 17.5333 304.28 18.88 304.28 20.4C304.28 21.8933 303.787 23.2267 302.8 24.4C301.84 25.5467 300.573 26.3467 299 26.8C300.867 27.2 302.36 27.9867 303.48 29.16C304.627 30.3067 305.2 31.6667 305.2 33.24C305.2 34.8133 304.747 36.2267 303.84 37.48C302.933 38.7067 301.693 39.68 300.12 40.4C298.573 41.0933 296.787 41.44 294.76 41.44ZM329.001 41.44C326.815 41.44 324.748 41.0667 322.801 40.32C320.881 39.5467 319.028 38.4133 317.241 36.92L319.841 33.4C321.655 34.8667 323.268 35.92 324.681 36.56C326.121 37.1733 327.655 37.48 329.281 37.48C330.508 37.48 331.588 37.2933 332.521 36.92C333.481 36.52 334.215 35.9867 334.721 35.32C335.255 34.6533 335.521 33.88 335.521 33C335.521 31.8533 335.135 30.9867 334.361 30.4C333.615 29.7867 332.308 29.32 330.441 29L325.281 28.12C322.855 27.6933 321.041 26.88 319.841 25.68C318.668 24.4533 318.081 22.8933 318.081 21C318.081 19.32 318.508 17.8533 319.361 16.6C320.215 15.32 321.401 14.3333 322.921 13.64C324.468 12.92 326.295 12.56 328.401 12.56C330.508 12.56 332.508 12.8667 334.401 13.48C336.295 14.0933 338.041 14.9867 339.641 16.16L337.201 19.76C335.788 18.6933 334.335 17.8933 332.841 17.36C331.348 16.8 329.815 16.52 328.241 16.52C327.121 16.52 326.135 16.6933 325.281 17.04C324.455 17.3867 323.801 17.8667 323.321 18.48C322.868 19.0933 322.641 19.7733 322.641 20.52C322.641 21.5333 322.975 22.32 323.641 22.88C324.335 23.4133 325.441 23.8133 326.961 24.08L331.961 24.92C334.788 25.4267 336.868 26.3067 338.201 27.56C339.561 28.8133 340.241 30.5067 340.241 32.64C340.241 34.3467 339.761 35.8667 338.801 37.2C337.868 38.5333 336.561 39.5733 334.881 40.32C333.201 41.0667 331.241 41.44 329.001 41.44ZM351.524 41V17.16H342.164V13H365.684V17.16H356.324V41H351.524ZM370.032 41V13H390.072V17.08H374.832V24.88H385.472V28.88H374.832V36.92H390.232V41H370.032ZM395.657 41V13H408.177C410.07 13 411.71 13.3733 413.097 14.12C414.51 14.84 415.604 15.8533 416.377 17.16C417.15 18.4667 417.537 19.9867 417.537 21.72C417.537 23.3733 417.15 24.8533 416.377 26.16C415.604 27.4667 414.51 28.4933 413.097 29.24C411.71 29.96 410.07 30.32 408.177 30.32H400.457V41H395.657ZM400.457 26.4H407.417C409.124 26.4 410.43 25.9733 411.337 25.12C412.244 24.24 412.697 23.0933 412.697 21.68C412.697 20.2933 412.244 19.1733 411.337 18.32C410.43 17.4667 409.137 17.04 407.457 17.04H400.457V26.4ZM432.556 41.44C430.369 41.44 428.303 41.0667 426.356 40.32C424.436 39.5467 422.583 38.4133 420.796 36.92L423.396 33.4C425.209 34.8667 426.823 35.92 428.236 36.56C429.676 37.1733 431.209 37.48 432.836 37.48C434.063 37.48 435.143 37.2933 436.076 36.92C437.036 36.52 437.769 35.9867 438.276 35.32C438.809 34.6533 439.076 33.88 439.076 33C439.076 31.8533 438.689 30.9867 437.916 30.4C437.169 29.7867 435.863 29.32 433.996 29L428.836 28.12C426.409 27.6933 424.596 26.88 423.396 25.68C422.223 24.4533 421.636 22.8933 421.636 21C421.636 19.32 422.063 17.8533 422.916 16.6C423.769 15.32 424.956 14.3333 426.476 13.64C428.023 12.92 429.849 12.56 431.956 12.56C434.063 12.56 436.063 12.8667 437.956 13.48C439.849 14.0933 441.596 14.9867 443.196 16.16L440.756 19.76C439.343 18.6933 437.889 17.8933 436.396 17.36C434.903 16.8 433.369 16.52 431.796 16.52C430.676 16.52 429.689 16.6933 428.836 17.04C428.009 17.3867 427.356 17.8667 426.876 18.48C426.423 19.0933 426.196 19.7733 426.196 20.52C426.196 21.5333 426.529 22.32 427.196 22.88C427.889 23.4133 428.996 23.8133 430.516 24.08L435.516 24.92C438.343 25.4267 440.423 26.3067 441.756 27.56C443.116 28.8133 443.796 30.5067 443.796 32.64C443.796 34.3467 443.316 35.8667 442.356 37.2C441.423 38.5333 440.116 39.5733 438.436 40.32C436.756 41.0667 434.796 41.44 432.556 41.44ZM464.649 41V17.16H455.289V13H478.809V17.16H469.449V41H464.649ZM494.435 41.44C492.462 41.44 490.609 41.08 488.875 40.36C487.169 39.6133 485.662 38.5867 484.355 37.28C483.075 35.9467 482.075 34.4133 481.355 32.68C480.635 30.92 480.275 29.0267 480.275 27C480.275 24.9733 480.635 23.0933 481.355 21.36C482.075 19.6 483.075 18.0667 484.355 16.76C485.662 15.4267 487.169 14.4 488.875 13.68C490.609 12.9333 492.462 12.56 494.435 12.56C496.409 12.56 498.249 12.9333 499.955 13.68C501.689 14.4 503.195 15.4267 504.475 16.76C505.782 18.0667 506.795 19.6 507.515 21.36C508.235 23.0933 508.595 24.9733 508.595 27C508.595 29.0267 508.235 30.92 507.515 32.68C506.795 34.4133 505.782 35.9467 504.475 37.28C503.195 38.5867 501.689 39.6133 499.955 40.36C498.249 41.08 496.409 41.44 494.435 41.44ZM494.435 37.12C495.742 37.12 496.955 36.8667 498.075 36.36C499.195 35.8533 500.169 35.1467 500.995 34.24C501.849 33.3067 502.502 32.2267 502.955 31C503.435 29.7733 503.675 28.44 503.675 27C503.675 25.56 503.435 24.2267 502.955 23C502.502 21.7733 501.849 20.7067 500.995 19.8C500.169 18.8667 499.195 18.1467 498.075 17.64C496.955 17.1333 495.742 16.88 494.435 16.88C493.129 16.88 491.915 17.1333 490.795 17.64C489.675 18.1467 488.689 18.8667 487.835 19.8C486.982 20.7067 486.315 21.7733 485.835 23C485.382 24.2267 485.155 25.56 485.155 27C485.155 28.44 485.382 29.7733 485.835 31C486.315 32.2267 486.982 33.3067 487.835 34.24C488.689 35.1467 489.675 35.8533 490.795 36.36C491.915 36.8667 493.129 37.12 494.435 37.12ZM530.001 41V17.16H520.641V13H544.161V17.16H534.801V41H530.001ZM548.308 41V13H553.108V24.76H567.028V13H571.828V41H567.028V29.04H553.108V41H548.308ZM578.352 41V13H598.392V17.08H583.152V24.88H593.792V28.88H583.152V36.92H598.552V41H578.352ZM612.962 41V13H625.482C627.375 13 629.015 13.3733 630.402 14.12C631.815 14.84 632.908 15.8533 633.682 17.16C634.455 18.4667 634.842 19.9867 634.842 21.72C634.842 23.3733 634.455 24.8533 633.682 26.16C632.908 27.4667 631.815 28.4933 630.402 29.24C629.015 29.96 627.375 30.32 625.482 30.32H617.762V41H612.962ZM617.762 26.4H624.722C626.428 26.4 627.735 25.9733 628.642 25.12C629.548 24.24 630.002 23.0933 630.002 21.68C630.002 20.2933 629.548 19.1733 628.642 18.32C627.735 17.4667 626.442 17.04 624.762 17.04H617.762V26.4ZM640.11 41V13H660.15V17.08H644.91V24.88H655.55V28.88H644.91V36.92H660.31V41H640.11ZM665.735 41V13H678.175C680.015 13 681.642 13.36 683.055 14.08C684.468 14.8 685.562 15.8 686.335 17.08C687.135 18.3333 687.535 19.8 687.535 21.48C687.535 23.2933 687.028 24.88 686.015 26.24C685.028 27.5733 683.682 28.5467 681.975 29.16L687.895 41H682.575L677.175 29.8H670.535V41H665.735ZM670.535 25.96H677.735C679.228 25.96 680.428 25.56 681.335 24.76C682.242 23.9333 682.695 22.8533 682.695 21.52C682.695 20.16 682.242 19.08 681.335 18.28C680.428 17.4533 679.228 17.04 677.735 17.04H670.535V25.96ZM692.61 41V13H712.73V17.08H697.41V25.08H707.97V29.08H697.41V41H692.61ZM717.962 41V13H738.002V17.08H722.762V24.88H733.402V28.88H722.762V36.92H738.162V41H717.962ZM755.223 41.44C753.196 41.44 751.303 41.08 749.543 40.36C747.783 39.6133 746.236 38.5867 744.903 37.28C743.596 35.9467 742.57 34.4133 741.823 32.68C741.103 30.92 740.743 29.0267 740.743 27C740.743 24.9733 741.103 23.0933 741.823 21.36C742.57 19.6 743.596 18.0667 744.903 16.76C746.236 15.4267 747.783 14.4 749.543 13.68C751.303 12.9333 753.196 12.56 755.223 12.56C756.663 12.56 758.05 12.76 759.383 13.16C760.716 13.56 761.956 14.1333 763.103 14.88C764.276 15.6 765.29 16.4933 766.143 17.56L762.943 20.68C761.956 19.4267 760.796 18.48 759.463 17.84C758.13 17.2 756.716 16.88 755.223 16.88C753.863 16.88 752.596 17.1333 751.423 17.64C750.276 18.1467 749.263 18.8667 748.383 19.8C747.53 20.7067 746.863 21.7733 746.383 23C745.903 24.2267 745.663 25.56 745.663 27C745.663 28.44 745.903 29.7733 746.383 31C746.863 32.2267 747.53 33.3067 748.383 34.24C749.263 35.1467 750.276 35.8533 751.423 36.36C752.596 36.8667 753.863 37.12 755.223 37.12C756.716 37.12 758.13 36.8 759.463 36.16C760.796 35.4933 761.956 34.5467 762.943 33.32L766.143 36.44C765.29 37.48 764.276 38.3733 763.103 39.12C761.956 39.8667 760.716 40.44 759.383 40.84C758.05 41.24 756.663 41.44 755.223 41.44ZM778.36 41V17.16H769V13H792.52V17.16H783.16V41H778.36ZM812.852 41V17.16H803.492V13H827.012V17.16H817.652V41H812.852ZM831.36 41V13H843.8C845.64 13 847.267 13.36 848.68 14.08C850.093 14.8 851.187 15.8 851.96 17.08C852.76 18.3333 853.16 19.8 853.16 21.48C853.16 23.2933 852.653 24.88 851.64 26.24C850.653 27.5733 849.307 28.5467 847.6 29.16L853.52 41H848.2L842.8 29.8H836.16V41H831.36ZM836.16 25.96H843.36C844.853 25.96 846.053 25.56 846.96 24.76C847.867 23.9333 848.32 22.8533 848.32 21.52C848.32 20.16 847.867 19.08 846.96 18.28C846.053 17.4533 844.853 17.04 843.36 17.04H836.16V25.96ZM858.035 41V13H862.835V41H858.035ZM869.368 41V13H881.888C883.781 13 885.421 13.3733 886.808 14.12C888.221 14.84 889.314 15.8533 890.088 17.16C890.861 18.4667 891.248 19.9867 891.248 21.72C891.248 23.3733 890.861 24.8533 890.088 26.16C889.314 27.4667 888.221 28.4933 886.808 29.24C885.421 29.96 883.781 30.32 881.888 30.32H874.168V41H869.368ZM874.168 26.4H881.128C882.834 26.4 884.141 25.9733 885.048 25.12C885.954 24.24 886.408 23.0933 886.408 21.68C886.408 20.2933 885.954 19.1733 885.048 18.32C884.141 17.4667 882.848 17.04 881.168 17.04H874.168V26.4Z" fill="#F2785C"/>
</svg>
